<svg width="131" height="114" viewBox="0 0 131 114" fill="none" xmlns="http://www.w3.org/2000/svg">
<rect x="2" y="2" width="127" height="110" rx="17" fill="url(#paint0_linear_237_1187)" stroke="white" stroke-width="4"/>
<path d="M15.6036 20.4207L15.5976 21.5547H10.2096V12.9147H15.5976V14.0487H11.6196V16.6527H14.7996V17.7507H11.6196V20.4207H15.6036ZM17.709 16.2447C17.841 16.1087 17.977 15.9867 18.117 15.8787C18.261 15.7667 18.413 15.6707 18.573 15.5907C18.733 15.5107 18.903 15.4487 19.083 15.4047C19.263 15.3607 19.459 15.3387 19.671 15.3387C20.007 15.3387 20.301 15.3947 20.553 15.5067C20.809 15.6187 21.023 15.7767 21.195 15.9807C21.371 16.1847 21.503 16.4307 21.591 16.7187C21.679 17.0027 21.723 17.3167 21.723 17.6607V21.5547H20.439V17.6607C20.439 17.2487 20.343 16.9287 20.151 16.7007C19.963 16.4727 19.675 16.3587 19.287 16.3587C18.999 16.3587 18.731 16.4247 18.483 16.5567C18.239 16.6887 18.009 16.8687 17.793 17.0967V21.5547H16.503V15.4347H17.283C17.459 15.4347 17.571 15.5167 17.619 15.6807L17.709 16.2447ZM25.1736 18.4407C25.5736 18.4407 25.8736 18.3387 26.0736 18.1347C26.2736 17.9307 26.3736 17.6647 26.3736 17.3367C26.3736 17.0007 26.2736 16.7347 26.0736 16.5387C25.8736 16.3427 25.5736 16.2447 25.1736 16.2447C24.7776 16.2447 24.4776 16.3427 24.2736 16.5387C24.0736 16.7347 23.9736 17.0007 23.9736 17.3367C23.9736 17.4967 23.9996 17.6447 24.0516 17.7807C24.1036 17.9167 24.1796 18.0347 24.2796 18.1347C24.3796 18.2307 24.5036 18.3067 24.6516 18.3627C24.8036 18.4147 24.9776 18.4407 25.1736 18.4407ZM26.9676 21.8547C26.9676 21.7187 26.9276 21.6107 26.8476 21.5307C26.7716 21.4467 26.6676 21.3827 26.5356 21.3387C26.4036 21.2907 26.2496 21.2567 26.0736 21.2367C25.8976 21.2127 25.7096 21.1967 25.5096 21.1887C25.3136 21.1767 25.1116 21.1667 24.9036 21.1587C24.6996 21.1467 24.5016 21.1267 24.3096 21.0987C24.1176 21.1987 23.9596 21.3187 23.8356 21.4587C23.7156 21.5987 23.6556 21.7607 23.6556 21.9447C23.6556 22.0647 23.6856 22.1767 23.7456 22.2807C23.8096 22.3847 23.9056 22.4747 24.0336 22.5507C24.1656 22.6267 24.3316 22.6867 24.5316 22.7307C24.7356 22.7747 24.9796 22.7967 25.2636 22.7967C25.8316 22.7967 26.2576 22.7087 26.5416 22.5327C26.8256 22.3567 26.9676 22.1307 26.9676 21.8547ZM28.2636 15.6567V16.1367C28.2636 16.2967 28.1676 16.3947 27.9756 16.4307L27.3636 16.5327C27.4676 16.7647 27.5196 17.0227 27.5196 17.3067C27.5196 17.6067 27.4596 17.8787 27.3396 18.1227C27.2236 18.3667 27.0616 18.5747 26.8536 18.7467C26.6456 18.9187 26.3976 19.0507 26.1096 19.1427C25.8216 19.2347 25.5096 19.2807 25.1736 19.2807C25.0456 19.2807 24.9196 19.2747 24.7956 19.2627C24.6756 19.2467 24.5576 19.2267 24.4416 19.2027C24.3256 19.2707 24.2396 19.3427 24.1836 19.4187C24.1276 19.4947 24.0996 19.5727 24.0996 19.6527C24.0996 19.7847 24.1576 19.8827 24.2736 19.9467C24.3896 20.0107 24.5416 20.0567 24.7296 20.0847C24.9216 20.1127 25.1396 20.1307 25.3836 20.1387C25.6276 20.1467 25.8756 20.1607 26.1276 20.1807C26.3796 20.2007 26.6276 20.2347 26.8716 20.2827C27.1156 20.3267 27.3316 20.4027 27.5196 20.5107C27.7116 20.6147 27.8656 20.7567 27.9816 20.9367C28.0976 21.1167 28.1556 21.3507 28.1556 21.6387C28.1556 21.9027 28.0896 22.1607 27.9576 22.4127C27.8256 22.6647 27.6336 22.8887 27.3816 23.0847C27.1336 23.2807 26.8296 23.4367 26.4696 23.5527C26.1096 23.6727 25.6996 23.7327 25.2396 23.7327C24.7836 23.7327 24.3856 23.6887 24.0456 23.6007C23.7096 23.5127 23.4276 23.3927 23.1996 23.2407C22.9756 23.0927 22.8076 22.9207 22.6956 22.7247C22.5876 22.5287 22.5336 22.3247 22.5336 22.1127C22.5336 21.8247 22.6236 21.5787 22.8036 21.3747C22.9876 21.1707 23.2356 21.0107 23.5476 20.8947C23.3796 20.8147 23.2436 20.7047 23.1396 20.5647C23.0396 20.4247 22.9896 20.2407 22.9896 20.0127C22.9896 19.8327 23.0556 19.6447 23.1876 19.4487C23.3196 19.2527 23.5176 19.0867 23.7816 18.9507C23.4776 18.7827 23.2376 18.5607 23.0616 18.2847C22.8856 18.0047 22.7976 17.6787 22.7976 17.3067C22.7976 17.0027 22.8556 16.7287 22.9716 16.4847C23.0916 16.2407 23.2576 16.0327 23.4696 15.8607C23.6816 15.6887 23.9316 15.5567 24.2196 15.4647C24.5116 15.3727 24.8296 15.3267 25.1736 15.3267C25.7016 15.3267 26.1616 15.4367 26.5536 15.6567H28.2636ZM30.3566 12.6747V21.5547H29.0666V12.6747H30.3566ZM33.0528 15.4347V21.5547H31.7628V15.4347H33.0528ZM33.2688 13.5867C33.2688 13.7027 33.2448 13.8127 33.1968 13.9167C33.1528 14.0207 33.0908 14.1127 33.0108 14.1927C32.9308 14.2687 32.8368 14.3307 32.7288 14.3787C32.6248 14.4227 32.5128 14.4447 32.3928 14.4447C32.2768 14.4447 32.1668 14.4227 32.0628 14.3787C31.9628 14.3307 31.8748 14.2687 31.7988 14.1927C31.7228 14.1127 31.6608 14.0207 31.6128 13.9167C31.5688 13.8127 31.5468 13.7027 31.5468 13.5867C31.5468 13.4667 31.5688 13.3547 31.6128 13.2507C31.6608 13.1467 31.7228 13.0567 31.7988 12.9807C31.8748 12.9007 31.9628 12.8387 32.0628 12.7947C32.1668 12.7467 32.2768 12.7227 32.3928 12.7227C32.5128 12.7227 32.6248 12.7467 32.7288 12.7947C32.8368 12.8387 32.9308 12.9007 33.0108 12.9807C33.0908 13.0567 33.1528 13.1467 33.1968 13.2507C33.2448 13.3547 33.2688 13.4667 33.2688 13.5867ZM38.0877 16.5447C38.0557 16.6007 38.0197 16.6407 37.9797 16.6647C37.9397 16.6887 37.8897 16.7007 37.8297 16.7007C37.7617 16.7007 37.6877 16.6807 37.6077 16.6407C37.5277 16.5967 37.4337 16.5487 37.3257 16.4967C37.2177 16.4447 37.0897 16.3987 36.9417 16.3587C36.7977 16.3147 36.6277 16.2927 36.4317 16.2927C36.2717 16.2927 36.1257 16.3127 35.9937 16.3527C35.8657 16.3887 35.7557 16.4427 35.6637 16.5147C35.5757 16.5827 35.5077 16.6647 35.4597 16.7607C35.4117 16.8527 35.3877 16.9527 35.3877 17.0607C35.3877 17.2047 35.4317 17.3247 35.5197 17.4207C35.6077 17.5167 35.7237 17.6007 35.8677 17.6727C36.0117 17.7407 36.1757 17.8027 36.3597 17.8587C36.5437 17.9147 36.7317 17.9747 36.9237 18.0387C37.1157 18.1027 37.3037 18.1767 37.4877 18.2607C37.6717 18.3447 37.8357 18.4487 37.9797 18.5727C38.1237 18.6927 38.2397 18.8407 38.3277 19.0167C38.4157 19.1887 38.4597 19.3987 38.4597 19.6467C38.4597 19.9347 38.4077 20.2007 38.3037 20.4447C38.1997 20.6887 38.0477 20.9007 37.8477 21.0807C37.6477 21.2607 37.3977 21.4007 37.0977 21.5007C36.8017 21.6007 36.4617 21.6507 36.0777 21.6507C35.8657 21.6507 35.6597 21.6307 35.4597 21.5907C35.2637 21.5547 35.0757 21.5047 34.8957 21.4407C34.7197 21.3727 34.5537 21.2927 34.3977 21.2007C34.2457 21.1087 34.1097 21.0087 33.9897 20.9007L34.2897 20.4087C34.3257 20.3487 34.3697 20.3027 34.4217 20.2707C34.4777 20.2347 34.5457 20.2167 34.6257 20.2167C34.7097 20.2167 34.7917 20.2447 34.8717 20.3007C34.9557 20.3527 35.0517 20.4107 35.1597 20.4747C35.2717 20.5387 35.4057 20.5987 35.5617 20.6547C35.7177 20.7067 35.9117 20.7327 36.1437 20.7327C36.3357 20.7327 36.5017 20.7107 36.6417 20.6667C36.7817 20.6187 36.8977 20.5547 36.9897 20.4747C37.0817 20.3947 37.1497 20.3047 37.1937 20.2047C37.2377 20.1007 37.2597 19.9907 37.2597 19.8747C37.2597 19.7187 37.2157 19.5907 37.1277 19.4907C37.0397 19.3907 36.9217 19.3047 36.7737 19.2327C36.6297 19.1607 36.4637 19.0967 36.2757 19.0407C36.0917 18.9847 35.9037 18.9247 35.7117 18.8607C35.5197 18.7967 35.3297 18.7227 35.1417 18.6387C34.9577 18.5547 34.7917 18.4487 34.6437 18.3207C34.4997 18.1887 34.3837 18.0307 34.2957 17.8467C34.2077 17.6587 34.1637 17.4307 34.1637 17.1627C34.1637 16.9187 34.2117 16.6867 34.3077 16.4667C34.4077 16.2467 34.5517 16.0527 34.7397 15.8847C34.9317 15.7167 35.1657 15.5847 35.4417 15.4887C35.7217 15.3887 36.0437 15.3387 36.4077 15.3387C36.8197 15.3387 37.1937 15.4047 37.5297 15.5367C37.8657 15.6687 38.1477 15.8487 38.3757 16.0767L38.0877 16.5447ZM40.7219 16.1607C40.9739 15.9127 41.2499 15.7147 41.5499 15.5667C41.8499 15.4147 42.1999 15.3387 42.5999 15.3387C42.9359 15.3387 43.2299 15.3947 43.4819 15.5067C43.7379 15.6187 43.9519 15.7767 44.1239 15.9807C44.2999 16.1847 44.4319 16.4307 44.5199 16.7187C44.6079 17.0027 44.6519 17.3167 44.6519 17.6607V21.5547H43.3679V17.6607C43.3679 17.2487 43.2719 16.9287 43.0799 16.7007C42.8919 16.4727 42.6039 16.3587 42.2159 16.3587C41.9279 16.3587 41.6599 16.4247 41.4119 16.5567C41.1679 16.6887 40.9379 16.8687 40.7219 17.0967V21.5547H39.4319V12.6747H40.7219V16.1607Z" fill="white"/>
<path d="M73.7555 64.91L67.1225 47.289C66.5865 45.9267 66.0393 44.1958 65.481 42.0965C65.2353 43.1462 64.9673 44.1177 64.677 45.011C64.3867 45.882 64.1187 46.6525 63.873 47.3225L57.24 64.91H73.7555ZM88.596 83H82.5325C81.8402 83 81.2818 82.8325 80.8575 82.4975C80.4332 82.1402 80.1093 81.7047 79.886 81.191L75.866 70.538H55.096L51.076 81.191C50.8973 81.6377 50.5847 82.0508 50.138 82.4305C49.6913 82.8102 49.133 83 48.463 83H42.3995L61.528 34.76H69.4675L88.596 83Z" fill="white"/>
<defs>
<linearGradient id="paint0_linear_237_1187" x1="65.5" y1="0" x2="65.5" y2="114" gradientUnits="userSpaceOnUse">
<stop stop-color="#61A7FF"/>
<stop offset="1" stop-color="#1E78E5"/>
</linearGradient>
</defs>
</svg>
