<svg width="132" height="114" viewBox="0 0 132 114" fill="none" xmlns="http://www.w3.org/2000/svg">
<rect x="2.5" y="2" width="127" height="110" rx="17" fill="url(#paint0_linear_278_793)" stroke="white" stroke-width="4"/>
<path d="M14.1176 20.4207C14.4496 20.4207 14.7456 20.3647 15.0056 20.2527C15.2696 20.1407 15.4916 19.9847 15.6716 19.7847C15.8556 19.5847 15.9956 19.3447 16.0916 19.0647C16.1876 18.7807 16.2356 18.4667 16.2356 18.1227V12.9147H17.6336V18.1227C17.6336 18.6307 17.5516 19.1007 17.3876 19.5327C17.2276 19.9647 16.9956 20.3387 16.6916 20.6547C16.3876 20.9667 16.0176 21.2127 15.5816 21.3927C15.1496 21.5687 14.6616 21.6567 14.1176 21.6567C13.5736 21.6567 13.0836 21.5687 12.6476 21.3927C12.2156 21.2127 11.8476 20.9667 11.5436 20.6547C11.2396 20.3387 11.0056 19.9647 10.8416 19.5327C10.6816 19.1007 10.6016 18.6307 10.6016 18.1227V12.9147H12.0056V18.1167C12.0056 18.4607 12.0536 18.7747 12.1496 19.0587C12.2456 19.3387 12.3836 19.5807 12.5636 19.7847C12.7436 19.9847 12.9636 20.1407 13.2236 20.2527C13.4876 20.3647 13.7856 20.4207 14.1176 20.4207ZM20.1312 16.5687C20.3232 16.1807 20.5552 15.8767 20.8272 15.6567C21.0992 15.4327 21.4252 15.3207 21.8052 15.3207C21.9372 15.3207 22.0612 15.3367 22.1772 15.3687C22.2932 15.3967 22.3972 15.4407 22.4892 15.5007L22.3992 16.4727C22.3832 16.5407 22.3572 16.5887 22.3212 16.6167C22.2892 16.6407 22.2452 16.6527 22.1892 16.6527C22.1292 16.6527 22.0432 16.6427 21.9312 16.6227C21.8192 16.5987 21.7012 16.5867 21.5772 16.5867C21.3972 16.5867 21.2372 16.6127 21.0972 16.6647C20.9612 16.7167 20.8372 16.7927 20.7252 16.8927C20.6172 16.9927 20.5212 17.1147 20.4372 17.2587C20.3532 17.4027 20.2752 17.5667 20.2032 17.7507V21.5547H18.9132V15.4347H19.6632C19.7992 15.4347 19.8932 15.4607 19.9452 15.5127C19.9972 15.5607 20.0332 15.6467 20.0532 15.7707L20.1312 16.5687ZM26.8097 16.9407C26.6297 16.7087 26.4317 16.5467 26.2157 16.4547C25.9997 16.3627 25.7657 16.3167 25.5137 16.3167C25.0097 16.3167 24.6157 16.5027 24.3317 16.8747C24.0477 17.2427 23.9057 17.7887 23.9057 18.5127C23.9057 18.8887 23.9377 19.2107 24.0017 19.4787C24.0657 19.7427 24.1577 19.9587 24.2777 20.1267C24.3977 20.2947 24.5437 20.4167 24.7157 20.4927C24.8877 20.5687 25.0817 20.6067 25.2977 20.6067C25.6257 20.6067 25.9077 20.5367 26.1437 20.3967C26.3837 20.2527 26.6057 20.0507 26.8097 19.7907V16.9407ZM28.0997 12.6747V21.5547H27.3197C27.1477 21.5547 27.0377 21.4727 26.9897 21.3087L26.8757 20.6427C26.6197 20.9427 26.3277 21.1847 25.9997 21.3687C25.6757 21.5527 25.2977 21.6447 24.8657 21.6447C24.5217 21.6447 24.2097 21.5767 23.9297 21.4407C23.6497 21.3007 23.4097 21.0987 23.2097 20.8347C23.0097 20.5707 22.8537 20.2447 22.7417 19.8567C22.6337 19.4647 22.5797 19.0167 22.5797 18.5127C22.5797 18.0567 22.6397 17.6347 22.7597 17.2467C22.8837 16.8587 23.0597 16.5227 23.2877 16.2387C23.5157 15.9507 23.7917 15.7267 24.1157 15.5667C24.4437 15.4027 24.8097 15.3207 25.2137 15.3207C25.5737 15.3207 25.8797 15.3787 26.1317 15.4947C26.3837 15.6067 26.6097 15.7647 26.8097 15.9687V12.6747H28.0997ZM34.5971 15.4347V21.5547H33.8171C33.6451 21.5547 33.5351 21.4727 33.4871 21.3087L33.3911 20.7387C33.2631 20.8747 33.1271 20.9987 32.9831 21.1107C32.8431 21.2227 32.6931 21.3187 32.5331 21.3987C32.3731 21.4787 32.2011 21.5407 32.0171 21.5847C31.8371 21.6287 31.6431 21.6507 31.4351 21.6507C31.0991 21.6507 30.8031 21.5947 30.5471 21.4827C30.2911 21.3707 30.0751 21.2127 29.8991 21.0087C29.7271 20.8047 29.5971 20.5607 29.5091 20.2767C29.4211 19.9887 29.3771 19.6727 29.3771 19.3287V15.4347H30.6671V19.3287C30.6671 19.7407 30.7611 20.0607 30.9491 20.2887C31.1411 20.5167 31.4311 20.6307 31.8191 20.6307C32.1031 20.6307 32.3671 20.5667 32.6111 20.4387C32.8591 20.3067 33.0911 20.1267 33.3071 19.8987V15.4347H34.5971Z" fill="white"/>
<path fill-rule="evenodd" clip-rule="evenodd" d="M49.7579 60.219C47.5004 60.4313 44.9565 60.0379 43.6687 58.455C43.0062 57.6404 44.3612 55.973 44.9814 55.45C49.3165 51.7947 50.4742 56.7326 49.7579 60.219ZM11.7188 55.4257V57.9412C11.8084 58.1709 11.9455 59.4761 12.0329 59.8863C12.1561 60.4643 12.3326 61.1169 12.4853 61.6954C13.0934 63.9998 14.394 65.9189 16.9379 66.3082C18.3299 66.5217 19.712 66.163 20.5955 65.4838C22.437 64.0675 22.8489 62.1803 23.7723 59.5311C24.1813 58.3589 24.6216 57.4159 25.0879 56.3195C25.6086 55.0953 25.9615 54.1748 27.1863 53.8138L25.9858 57.2985C24.9155 60.941 24.422 66.3308 29.7482 66.2776C34.3372 66.2319 39.3828 66.3991 43.8752 66.292C45.7735 66.2469 46.1732 65.9437 47.5433 65.1887C49.4658 66.0676 49.5983 66.2596 52.1479 66.2926L63.5431 66.2978C65.2984 66.2978 67.5461 66.4199 69.2407 66.281C69.6943 65.6111 69.9529 62.9856 69.9847 61.9934C70.1143 58.0141 69.2569 54.0811 67.6103 50.5109C67.5467 50.3732 67.4767 50.2407 67.4084 50.0955C67.2771 49.8166 67.2956 49.8022 67.1041 49.6361C66.9398 50.0399 64.1274 54.3525 63.7323 55.0485C63.9215 55.2475 64.065 55.3244 64.2524 55.5096C65.6305 56.8738 66.7078 58.3711 66.9409 60.5256L52.5107 60.525C53.3085 58.9693 53.5272 58.7807 53.5388 56.61C53.5619 52.2905 53.1378 46.6699 47.1695 49.1333C43.9117 50.4779 41.1607 53.4968 39.8508 56.7234C39.2584 58.1831 39.2329 59.4929 40.1708 60.4915L32.0896 60.5644C28.8011 60.5644 27.6798 60.897 28.8404 56.4063C29.2656 54.7615 31.1905 52.0695 30.8208 50.2233C30.6079 49.1588 28.6535 49.3839 27.714 49.6564C26.58 49.9856 25.8117 50.6179 25.118 51.1976C24.6824 51.5615 24.5186 51.8502 24.1449 52.2546C23.8336 52.5919 23.5617 52.9819 23.2788 53.4164C21.6554 55.9093 20.1552 60.2861 18.6585 61.2054C17.5801 61.8679 16.4247 61.6278 15.6789 60.9213C14.4848 59.7903 13.9693 56.1228 13.8877 54.4207C13.8426 53.4817 14.0272 51.3162 13.2016 51.0194C12.8365 51.1351 12.7503 51.4701 12.5675 51.8398C11.8287 53.3365 11.9774 54.7343 11.7188 55.4239L11.7188 55.4257Z" fill="white"/>
<path fill-rule="evenodd" clip-rule="evenodd" d="M98.9078 60.1323C101.359 58.5378 104.101 56.9942 107.023 56.3023C109.083 55.8146 110.695 55.7098 112.212 56.8756C113.433 57.814 114.467 58.9526 114.944 60.5245L98.4039 60.5228L98.9078 60.1323ZM120.284 59.9801V58.138L120.006 57.1215C119.324 54.956 115.546 50.8286 113.411 50.7059C110.169 50.5191 100.645 55.3963 97.8901 57.5519C97.4597 57.8887 97.267 58.175 97.204 58.0131C99.4592 54.5811 97.1907 48.0319 97.5615 46.63C97.6385 46.339 99.2758 44.7914 99.5176 44.1932C98.3119 43.6094 96.8626 41.4185 96.2881 40.1017C96.1018 39.6753 95.805 38.6941 95.6205 38.3735C95.3341 38.6165 95.12 38.9544 94.8684 39.3119L92.8625 42.3806C92.1833 43.4 92.2226 43.2172 92.9001 44.6554C93.4006 45.7177 95.0871 57.6827 95.1912 59.2378C94.9083 59.3964 94.6821 59.5665 94.431 59.7927C93.5088 60.6235 93.0043 60.5899 91.3311 60.6437C89.7146 60.6952 88.2029 60.4256 86.8595 59.9084C85.8956 59.5375 86.0634 59.3431 85.5855 58.5285C85.2557 57.9656 84.9578 57.4432 84.6211 56.9179C84.2375 56.3196 82.9253 54.1807 82.5169 53.8313L79.3238 58.9821C79.5622 59.3113 81.196 60.3226 82.2883 62.5258C82.6482 63.2507 82.5238 63.3693 82.2322 64.1393C80.2842 69.2809 74.8875 72.4913 69.6574 73.1011C68.3886 73.2492 66.0999 73.0404 65.7695 73.5472C65.9865 73.951 66.7768 74.1141 67.1957 74.2646C70.1515 75.3233 76.5942 76.8565 79.126 75.4714C82.2577 73.7578 84.7252 68.5352 84.8756 64.8081C85.1765 64.9048 85.3043 65.0749 85.578 65.2473C87.9038 66.7098 89.3033 66.2996 92.1862 66.2996H118.424C118.583 65.8605 118.881 65.3531 119.084 64.8562C119.497 63.8477 119.794 62.8139 120.013 61.7181C120.086 61.3484 120.19 60.2185 120.284 59.9824V59.9801Z" fill="white"/>
<path fill-rule="evenodd" clip-rule="evenodd" d="M54.5082 76.5121H55.2152C55.6434 76.1864 55.3842 76.4953 55.9292 75.9237C56.149 75.6929 56.3191 75.5141 56.5459 75.2908C56.9283 74.9142 57.4218 74.3235 57.9229 74.0868C59.0458 74.9084 59.7708 75.9839 60.5929 76.5121H61.0841C61.1014 76.5 61.1257 76.4855 61.1384 76.4774L61.4746 76.239C61.6019 76.1326 61.6777 76.0539 61.7997 75.9399L63.5817 74.2095C64.7214 73.1316 64.7608 73.3295 63.065 71.6812C62.1636 70.8053 61.1523 69.4885 60.2596 70.1047C59.6238 70.5438 58.506 72.1765 57.7666 72.3141C57.2986 72.0503 56.8774 71.5568 56.5106 71.212C55.2418 70.0173 55.1175 69.3618 53.7949 70.5883L51.4766 72.8794C51.2429 73.2375 51.38 73.4701 51.6114 73.6923C52.5956 74.6347 53.5027 75.6269 54.5088 76.5115L54.5082 76.5121Z" fill="white"/>
<path fill-rule="evenodd" clip-rule="evenodd" d="M46.9424 37.4883H46.38C45.684 37.9673 45.1436 38.5384 44.5691 39.0428C44.2677 39.3072 44.0386 39.5809 43.7343 39.8453C42.4406 40.9671 43.0961 41.1551 44.5975 42.6189C45.8784 43.868 46.4112 44.8052 47.6279 43.5822C47.9756 43.2321 50.1192 41.2257 50.166 40.9717C50.2737 40.3862 49.0431 39.4311 48.7197 39.1221C48.0983 38.5285 47.6447 38.0749 46.9429 37.4883H46.9424Z" fill="white"/>
<path fill-rule="evenodd" clip-rule="evenodd" d="M111.026 39.036C110.253 39.2321 108.996 40.7624 108.227 41.43C107.992 41.6342 107.468 41.9576 107.61 42.5136C107.69 42.8295 109.682 44.641 110.164 45.1096C111.596 46.5033 112.068 44.9788 114.038 43.1842C114.283 42.9609 114.854 42.6716 114.671 42.1688C114.59 41.9449 112.561 39.9495 112.142 39.5422C111.897 39.3038 111.567 38.8988 111.027 39.036H111.026Z" fill="white"/>
<defs>
<linearGradient id="paint0_linear_278_793" x1="66" y1="0" x2="66" y2="114" gradientUnits="userSpaceOnUse">
<stop stop-color="#5F4F87"/>
<stop offset="1" stop-color="#29204D"/>
</linearGradient>
</defs>
</svg>
