<svg width="48" height="47" viewBox="0 0 48 47" fill="none" xmlns="http://www.w3.org/2000/svg">
<path d="M24.5333 0H23.4667C10.5064 0 0 10.5213 0 23.5C0 36.4787 10.5064 47 23.4667 47H24.5333C37.4936 47 48 36.4787 48 23.5C48 10.5213 37.4936 0 24.5333 0Z" fill="white"/>
<path d="M27.2842 35.8153H20.6153C14.5789 35.8153 12 33.1687 12 26.9742V20.1296C12 13.9351 14.5789 11.2885 20.6153 11.2885H22.8374C23.2935 11.2885 23.6713 11.6764 23.6713 12.1442C23.6713 12.6118 23.2935 12.9997 22.8374 12.9997H20.6153C15.4898 12.9997 13.6665 14.8705 13.6665 20.1296V26.9742C13.6665 32.2333 15.4898 34.1041 20.6153 34.1041H27.2842C32.4084 34.1041 34.2317 32.2333 34.2317 26.9742V24.6927C34.2317 24.2249 34.6094 23.8371 35.0656 23.8371C35.5218 23.8371 35.8996 24.2249 35.8996 24.6927V26.9742C35.8996 33.1687 33.3207 35.8153 27.2842 35.8153Z" fill="#FC614D"/>
<path d="M20.0641 30.0424C19.3855 30.0424 18.7628 29.7915 18.3066 29.3352C17.7623 28.7762 17.5286 27.9662 17.6517 27.1107L18.1289 23.677C18.2185 23.0153 18.641 22.1598 19.0958 21.692L27.8552 12.7026C30.0675 10.4325 32.3133 10.4325 34.5256 12.7026C35.7374 13.946 36.2817 15.2124 36.1711 16.4786C36.0704 17.5052 35.5373 18.5092 34.5256 19.5358L25.7661 28.5252C25.31 28.993 24.476 29.4265 23.8323 29.5177L20.4853 30.0083C20.3412 30.0424 20.197 30.0424 20.0641 30.0424ZM29.0334 13.9119L20.2754 22.9012C20.0641 23.118 19.8192 23.6199 19.7745 23.9165L19.2959 27.3502C19.2525 27.681 19.3183 27.9548 19.4862 28.126C19.6527 28.2971 19.9186 28.3655 20.2418 28.3199L23.5875 27.8293C23.8757 27.7837 24.3767 27.5327 24.5767 27.3159L33.3362 18.3266C34.0582 17.5851 34.436 16.9235 34.492 16.3074C34.5592 15.566 34.1814 14.7789 33.3362 13.9004C31.5577 12.0752 30.3348 12.5886 29.0334 13.9119Z" fill="#FC614D"/>
<path d="M32.677 21.0762C32.6 21.0762 32.5217 21.0647 32.4545 21.0419C29.5314 20.1978 27.2086 17.8135 26.3858 14.8134C26.2641 14.357 26.5188 13.8893 26.9637 13.7524C27.4087 13.6269 27.8649 13.8893 27.9866 14.3456C28.6541 16.7754 30.5319 18.7033 32.8994 19.3879C33.3444 19.5134 33.6005 19.9925 33.4774 20.4488C33.378 20.8367 33.045 21.0762 32.677 21.0762Z" fill="#FC614D"/>
</svg>
