<svg width="131" height="114" viewBox="0 0 131 114" fill="none" xmlns="http://www.w3.org/2000/svg">
<rect x="2" y="2" width="127" height="110" rx="17" fill="#F1F1F1" fill-opacity="0.65"/>
<rect x="2" y="2" width="127" height="110" rx="17" fill="url(#paint0_linear_278_791)"/>
<rect x="2" y="2" width="127" height="110" rx="17" stroke="white" stroke-width="4"/>
<path d="M17.3616 12.9147V21.5547H15.9576V17.7087H11.6196V21.5547H10.2096V12.9147H11.6196V16.6947H15.9576V12.9147H17.3616ZM20.1908 15.4347V21.5547H18.9008V15.4347H20.1908ZM20.4068 13.5867C20.4068 13.7027 20.3828 13.8127 20.3348 13.9167C20.2908 14.0207 20.2288 14.1127 20.1488 14.1927C20.0688 14.2687 19.9748 14.3307 19.8668 14.3787C19.7628 14.4227 19.6508 14.4447 19.5308 14.4447C19.4148 14.4447 19.3048 14.4227 19.2008 14.3787C19.1008 14.3307 19.0128 14.2687 18.9368 14.1927C18.8608 14.1127 18.7988 14.0207 18.7508 13.9167C18.7068 13.8127 18.6848 13.7027 18.6848 13.5867C18.6848 13.4667 18.7068 13.3547 18.7508 13.2507C18.7988 13.1467 18.8608 13.0567 18.9368 12.9807C19.0128 12.9007 19.1008 12.8387 19.2008 12.7947C19.3048 12.7467 19.4148 12.7227 19.5308 12.7227C19.6508 12.7227 19.7628 12.7467 19.8668 12.7947C19.9748 12.8387 20.0688 12.9007 20.1488 12.9807C20.2288 13.0567 20.2908 13.1467 20.3348 13.2507C20.3828 13.3547 20.4068 13.4667 20.4068 13.5867ZM22.7776 16.2447C22.9096 16.1087 23.0456 15.9867 23.1856 15.8787C23.3296 15.7667 23.4816 15.6707 23.6416 15.5907C23.8016 15.5107 23.9716 15.4487 24.1516 15.4047C24.3316 15.3607 24.5276 15.3387 24.7396 15.3387C25.0756 15.3387 25.3696 15.3947 25.6216 15.5067C25.8776 15.6187 26.0916 15.7767 26.2636 15.9807C26.4396 16.1847 26.5716 16.4307 26.6596 16.7187C26.7476 17.0027 26.7916 17.3167 26.7916 17.6607V21.5547H25.5076V17.6607C25.5076 17.2487 25.4116 16.9287 25.2196 16.7007C25.0316 16.4727 24.7436 16.3587 24.3556 16.3587C24.0676 16.3587 23.7996 16.4247 23.5516 16.5567C23.3076 16.6887 23.0776 16.8687 22.8616 17.0967V21.5547H21.5716V15.4347H22.3516C22.5276 15.4347 22.6396 15.5167 22.6876 15.6807L22.7776 16.2447ZM31.9642 16.9407C31.7842 16.7087 31.5862 16.5467 31.3702 16.4547C31.1542 16.3627 30.9202 16.3167 30.6682 16.3167C30.1642 16.3167 29.7702 16.5027 29.4862 16.8747C29.2022 17.2427 29.0602 17.7887 29.0602 18.5127C29.0602 18.8887 29.0922 19.2107 29.1562 19.4787C29.2202 19.7427 29.3122 19.9587 29.4322 20.1267C29.5522 20.2947 29.6982 20.4167 29.8702 20.4927C30.0422 20.5687 30.2362 20.6067 30.4522 20.6067C30.7802 20.6067 31.0622 20.5367 31.2982 20.3967C31.5382 20.2527 31.7602 20.0507 31.9642 19.7907V16.9407ZM33.2542 12.6747V21.5547H32.4742C32.3022 21.5547 32.1922 21.4727 32.1442 21.3087L32.0302 20.6427C31.7742 20.9427 31.4822 21.1847 31.1542 21.3687C30.8302 21.5527 30.4522 21.6447 30.0202 21.6447C29.6762 21.6447 29.3642 21.5767 29.0842 21.4407C28.8042 21.3007 28.5642 21.0987 28.3642 20.8347C28.1642 20.5707 28.0082 20.2447 27.8962 19.8567C27.7882 19.4647 27.7342 19.0167 27.7342 18.5127C27.7342 18.0567 27.7942 17.6347 27.9142 17.2467C28.0382 16.8587 28.2142 16.5227 28.4422 16.2387C28.6702 15.9507 28.9462 15.7267 29.2702 15.5667C29.5982 15.4027 29.9642 15.3207 30.3682 15.3207C30.7282 15.3207 31.0342 15.3787 31.2862 15.4947C31.5382 15.6067 31.7642 15.7647 31.9642 15.9687V12.6747H33.2542ZM35.9356 15.4347V21.5547H34.6456V15.4347H35.9356ZM36.1516 13.5867C36.1516 13.7027 36.1276 13.8127 36.0796 13.9167C36.0356 14.0207 35.9736 14.1127 35.8936 14.1927C35.8136 14.2687 35.7196 14.3307 35.6116 14.3787C35.5076 14.4227 35.3956 14.4447 35.2756 14.4447C35.1596 14.4447 35.0496 14.4227 34.9456 14.3787C34.8456 14.3307 34.7576 14.2687 34.6816 14.1927C34.6056 14.1127 34.5436 14.0207 34.4956 13.9167C34.4516 13.8127 34.4296 13.7027 34.4296 13.5867C34.4296 13.4667 34.4516 13.3547 34.4956 13.2507C34.5436 13.1467 34.6056 13.0567 34.6816 12.9807C34.7576 12.9007 34.8456 12.8387 34.9456 12.7947C35.0496 12.7467 35.1596 12.7227 35.2756 12.7227C35.3956 12.7227 35.5076 12.7467 35.6116 12.7947C35.7196 12.8387 35.8136 12.9007 35.8936 12.9807C35.9736 13.0567 36.0356 13.1467 36.0796 13.2507C36.1276 13.3547 36.1516 13.4667 36.1516 13.5867Z" fill="white"/>
<g clip-path="url(#clip0_278_791)">
<path d="M92.5 34.8193V40.5602H80.3826V86.8193H78.7563L74.1207 81.2451V62.9411C72.2221 63.7184 69.3491 64.1061 65.5002 64.1061C65.5002 64.6051 65.5814 65.3539 65.7441 66.3521C65.7441 69.5698 64.7274 72.1488 62.6943 74.0898C60.6611 76.0322 58.0446 77.0017 54.8463 77.0017C50.3456 77.0017 46.5512 74.8671 43.4608 70.5953C40.7493 66.9348 39.096 62.6369 38.5 57.6995H40.5331C41.1836 61.2499 42.5383 64.3011 44.5995 66.8515C46.9845 69.8469 49.8042 71.3441 53.0573 71.3441C55.2251 71.3441 57.083 70.6653 58.6281 69.3059C60.1733 67.9472 60.9458 66.1858 60.9458 64.0228C60.9458 61.8596 60.1047 60.1122 58.4249 58.7812C56.7437 57.4499 54.8186 56.7842 52.6507 56.7842C51.7282 56.7842 50.211 57.0067 48.0965 57.4499L43.7049 52.125C47.3911 51.8483 50.6442 51.1551 53.4639 50.0451C57.6929 48.4369 59.8073 46.1904 59.8073 43.3057C59.8073 41.7535 59.1834 40.5328 57.9368 39.6448C56.689 38.7583 55.2798 38.3136 53.7078 38.3136C50.7254 38.3136 46.8486 39.6734 42.0784 42.3905L38.5 37.149C42.1317 35.5966 45.7648 34.8193 49.3976 34.8193C53.1385 34.8193 56.2556 35.7631 58.75 37.6481C61.623 39.7568 63.0603 42.64 63.0603 46.3009C63.1136 50.2399 60.6206 53.2066 55.5784 55.2033C59.8606 57.2558 63.4935 58.2816 66.476 58.2816C69.2944 58.2816 71.2742 57.7136 72.4125 56.576C73.5512 55.4398 74.1206 53.4286 74.1206 50.5439V40.5602H68.1023L63.711 34.8193H92.5Z" fill="white"/>
</g>
<defs>
<linearGradient id="paint0_linear_278_791" x1="65.5" y1="0" x2="65.5" y2="114" gradientUnits="userSpaceOnUse">
<stop stop-color="#FA5253"/>
<stop offset="1" stop-color="#FD7644"/>
</linearGradient>
<clipPath id="clip0_278_791">
<rect width="54" height="52" fill="white" transform="translate(38.5 34.8193)"/>
</clipPath>
</defs>
</svg>
