<svg width="132" height="114" viewBox="0 0 132 114" fill="none" xmlns="http://www.w3.org/2000/svg">
<rect x="0.5" width="131" height="114" rx="19" fill="url(#paint0_linear_385_676)"/>
<path d="M15.2237 14.3907C15.1797 14.4627 15.1337 14.5167 15.0857 14.5527C15.0377 14.5847 14.9777 14.6007 14.9057 14.6007C14.8297 14.6007 14.7437 14.5687 14.6477 14.5047C14.5557 14.4407 14.4397 14.3707 14.2997 14.2947C14.1637 14.2147 14.0017 14.1427 13.8137 14.0787C13.6257 14.0107 13.4017 13.9767 13.1417 13.9767C12.9017 13.9767 12.6897 14.0067 12.5057 14.0667C12.3257 14.1267 12.1737 14.2107 12.0497 14.3187C11.9257 14.4267 11.8317 14.5547 11.7677 14.7027C11.7077 14.8467 11.6777 15.0047 11.6777 15.1767C11.6777 15.3967 11.7357 15.5807 11.8517 15.7287C11.9677 15.8727 12.1197 15.9967 12.3077 16.1007C12.4997 16.2047 12.7177 16.2967 12.9617 16.3767C13.2057 16.4527 13.4537 16.5347 13.7057 16.6227C13.9617 16.7107 14.2117 16.8107 14.4557 16.9227C14.6997 17.0347 14.9157 17.1767 15.1037 17.3487C15.2957 17.5207 15.4497 17.7307 15.5657 17.9787C15.6817 18.2267 15.7397 18.5287 15.7397 18.8847C15.7397 19.2687 15.6737 19.6287 15.5417 19.9647C15.4097 20.3007 15.2177 20.5947 14.9657 20.8467C14.7177 21.0947 14.4097 21.2907 14.0417 21.4347C13.6777 21.5787 13.2617 21.6507 12.7937 21.6507C12.5177 21.6507 12.2477 21.6227 11.9837 21.5667C11.7237 21.5147 11.4737 21.4407 11.2337 21.3447C10.9977 21.2447 10.7757 21.1247 10.5677 20.9847C10.3597 20.8447 10.1737 20.6887 10.0097 20.5167L10.4177 19.8447C10.4537 19.7887 10.4997 19.7447 10.5557 19.7127C10.6117 19.6807 10.6737 19.6647 10.7417 19.6647C10.8337 19.6647 10.9357 19.7087 11.0477 19.7967C11.1597 19.8807 11.2937 19.9747 11.4497 20.0787C11.6097 20.1787 11.8017 20.2727 12.0257 20.3607C12.2497 20.4447 12.5177 20.4867 12.8297 20.4867C13.3377 20.4867 13.7297 20.3627 14.0057 20.1147C14.2857 19.8667 14.4257 19.5247 14.4257 19.0887C14.4257 18.8447 14.3677 18.6467 14.2517 18.4947C14.1357 18.3387 13.9817 18.2087 13.7897 18.1047C13.6017 18.0007 13.3857 17.9127 13.1417 17.8407C12.8977 17.7687 12.6497 17.6927 12.3977 17.6127C12.1457 17.5287 11.8977 17.4327 11.6537 17.3247C11.4097 17.2127 11.1917 17.0687 10.9997 16.8927C10.8117 16.7127 10.6597 16.4927 10.5437 16.2327C10.4277 15.9687 10.3697 15.6407 10.3697 15.2487C10.3697 14.9367 10.4297 14.6347 10.5497 14.3427C10.6737 14.0507 10.8517 13.7927 11.0837 13.5687C11.3197 13.3407 11.6097 13.1587 11.9537 13.0227C12.2977 12.8867 12.6897 12.8187 13.1297 12.8187C13.6257 12.8187 14.0797 12.8967 14.4917 13.0527C14.9077 13.2087 15.2657 13.4307 15.5657 13.7187L15.2237 14.3907ZM17.9493 20.0187C18.1293 20.2507 18.3253 20.4147 18.5373 20.5107C18.7533 20.6027 18.9913 20.6487 19.2513 20.6487C19.7553 20.6487 20.1473 20.4647 20.4273 20.0967C20.7113 19.7287 20.8533 19.1807 20.8533 18.4527C20.8533 18.0767 20.8213 17.7567 20.7573 17.4927C20.6933 17.2247 20.6013 17.0067 20.4813 16.8387C20.3613 16.6707 20.2153 16.5487 20.0433 16.4727C19.8713 16.3967 19.6773 16.3587 19.4613 16.3587C19.1333 16.3587 18.8493 16.4307 18.6093 16.5747C18.3733 16.7147 18.1533 16.9167 17.9493 17.1807V20.0187ZM17.8833 16.3227C18.1393 16.0227 18.4293 15.7807 18.7533 15.5967C19.0813 15.4127 19.4613 15.3207 19.8933 15.3207C20.2373 15.3207 20.5493 15.3907 20.8293 15.5307C21.1093 15.6667 21.3493 15.8667 21.5493 16.1307C21.7493 16.3947 21.9033 16.7227 22.0113 17.1147C22.1233 17.5027 22.1793 17.9487 22.1793 18.4527C22.1793 18.9047 22.1173 19.3267 21.9933 19.7187C21.8733 20.1067 21.6993 20.4447 21.4713 20.7327C21.2433 21.0167 20.9673 21.2407 20.6433 21.4047C20.3193 21.5647 19.9533 21.6447 19.5453 21.6447C19.1853 21.6447 18.8793 21.5867 18.6273 21.4707C18.3793 21.3547 18.1533 21.1947 17.9493 20.9907V23.5887H16.6593V15.4347H17.4393C17.6153 15.4347 17.7273 15.5167 17.7753 15.6807L17.8833 16.3227ZM26.4627 18.8787C26.0027 18.8947 25.6147 18.9327 25.2987 18.9927C24.9827 19.0487 24.7267 19.1227 24.5307 19.2147C24.3347 19.3027 24.1927 19.4087 24.1047 19.5327C24.0207 19.6567 23.9787 19.7927 23.9787 19.9407C23.9787 20.0847 24.0007 20.2087 24.0447 20.3127C24.0927 20.4127 24.1567 20.4967 24.2367 20.5647C24.3207 20.6287 24.4167 20.6767 24.5247 20.7087C24.6367 20.7367 24.7587 20.7507 24.8907 20.7507C25.2267 20.7507 25.5147 20.6887 25.7547 20.5647C25.9987 20.4367 26.2347 20.2527 26.4627 20.0127V18.8787ZM23.0427 16.2867C23.7347 15.6427 24.5587 15.3207 25.5147 15.3207C25.8667 15.3207 26.1787 15.3787 26.4507 15.4947C26.7267 15.6067 26.9567 15.7667 27.1407 15.9747C27.3287 16.1827 27.4707 16.4307 27.5667 16.7187C27.6667 17.0027 27.7167 17.3187 27.7167 17.6667V21.5547H27.1407C27.0167 21.5547 26.9227 21.5367 26.8587 21.5007C26.7947 21.4607 26.7407 21.3827 26.6967 21.2667L26.5707 20.7687C26.4147 20.9087 26.2607 21.0347 26.1087 21.1467C25.9567 21.2547 25.7987 21.3467 25.6347 21.4227C25.4747 21.4987 25.3007 21.5547 25.1127 21.5907C24.9287 21.6307 24.7247 21.6507 24.5007 21.6507C24.2527 21.6507 24.0207 21.6167 23.8047 21.5487C23.5927 21.4807 23.4087 21.3787 23.2527 21.2427C23.0967 21.1027 22.9727 20.9307 22.8807 20.7267C22.7927 20.5227 22.7487 20.2827 22.7487 20.0067C22.7487 19.7707 22.8107 19.5407 22.9347 19.3167C23.0627 19.0927 23.2707 18.8927 23.5587 18.7167C23.8507 18.5367 24.2327 18.3887 24.7047 18.2727C25.1807 18.1567 25.7667 18.0907 26.4627 18.0747V17.6667C26.4627 17.2267 26.3687 16.8987 26.1807 16.6827C25.9927 16.4667 25.7167 16.3587 25.3527 16.3587C25.1047 16.3587 24.8967 16.3907 24.7287 16.4547C24.5607 16.5147 24.4147 16.5807 24.2907 16.6527C24.1667 16.7247 24.0567 16.7927 23.9607 16.8567C23.8647 16.9167 23.7627 16.9467 23.6547 16.9467C23.5667 16.9467 23.4907 16.9247 23.4267 16.8807C23.3667 16.8327 23.3167 16.7747 23.2767 16.7067L23.0427 16.2867ZM30.1939 16.2447C30.3259 16.1087 30.4619 15.9867 30.6019 15.8787C30.7459 15.7667 30.8979 15.6707 31.0579 15.5907C31.2179 15.5107 31.3879 15.4487 31.5679 15.4047C31.7479 15.3607 31.9439 15.3387 32.1559 15.3387C32.4919 15.3387 32.7859 15.3947 33.0379 15.5067C33.2939 15.6187 33.5079 15.7767 33.6799 15.9807C33.8559 16.1847 33.9879 16.4307 34.0759 16.7187C34.1639 17.0027 34.2079 17.3167 34.2079 17.6607V21.5547H32.9239V17.6607C32.9239 17.2487 32.8279 16.9287 32.6359 16.7007C32.4479 16.4727 32.1599 16.3587 31.7719 16.3587C31.4839 16.3587 31.2159 16.4247 30.9679 16.5567C30.7239 16.6887 30.4939 16.8687 30.2779 17.0967V21.5547H28.9879V15.4347H29.7679C29.9439 15.4347 30.0559 15.5167 30.1039 15.6807L30.1939 16.2447ZM36.8184 15.4347V21.5547H35.5284V15.4347H36.8184ZM37.0344 13.5867C37.0344 13.7027 37.0104 13.8127 36.9624 13.9167C36.9184 14.0207 36.8564 14.1127 36.7764 14.1927C36.6964 14.2687 36.6024 14.3307 36.4944 14.3787C36.3904 14.4227 36.2784 14.4447 36.1584 14.4447C36.0424 14.4447 35.9324 14.4227 35.8284 14.3787C35.7284 14.3307 35.6404 14.2687 35.5644 14.1927C35.4884 14.1127 35.4264 14.0207 35.3784 13.9167C35.3344 13.8127 35.3124 13.7027 35.3124 13.5867C35.3124 13.4667 35.3344 13.3547 35.3784 13.2507C35.4264 13.1467 35.4884 13.0567 35.5644 12.9807C35.6404 12.9007 35.7284 12.8387 35.8284 12.7947C35.9324 12.7467 36.0424 12.7227 36.1584 12.7227C36.2784 12.7227 36.3904 12.7467 36.4944 12.7947C36.6024 12.8387 36.6964 12.9007 36.7764 12.9807C36.8564 13.0567 36.9184 13.1467 36.9624 13.2507C37.0104 13.3547 37.0344 13.4667 37.0344 13.5867ZM41.8533 16.5447C41.8213 16.6007 41.7853 16.6407 41.7453 16.6647C41.7053 16.6887 41.6553 16.7007 41.5953 16.7007C41.5273 16.7007 41.4533 16.6807 41.3733 16.6407C41.2933 16.5967 41.1993 16.5487 41.0913 16.4967C40.9833 16.4447 40.8553 16.3987 40.7073 16.3587C40.5633 16.3147 40.3933 16.2927 40.1973 16.2927C40.0373 16.2927 39.8913 16.3127 39.7593 16.3527C39.6313 16.3887 39.5213 16.4427 39.4293 16.5147C39.3413 16.5827 39.2733 16.6647 39.2253 16.7607C39.1773 16.8527 39.1533 16.9527 39.1533 17.0607C39.1533 17.2047 39.1973 17.3247 39.2853 17.4207C39.3733 17.5167 39.4893 17.6007 39.6333 17.6727C39.7773 17.7407 39.9413 17.8027 40.1253 17.8587C40.3093 17.9147 40.4973 17.9747 40.6893 18.0387C40.8813 18.1027 41.0693 18.1767 41.2533 18.2607C41.4373 18.3447 41.6013 18.4487 41.7453 18.5727C41.8893 18.6927 42.0053 18.8407 42.0933 19.0167C42.1813 19.1887 42.2253 19.3987 42.2253 19.6467C42.2253 19.9347 42.1733 20.2007 42.0693 20.4447C41.9653 20.6887 41.8133 20.9007 41.6133 21.0807C41.4133 21.2607 41.1633 21.4007 40.8633 21.5007C40.5673 21.6007 40.2273 21.6507 39.8433 21.6507C39.6313 21.6507 39.4253 21.6307 39.2253 21.5907C39.0293 21.5547 38.8413 21.5047 38.6613 21.4407C38.4853 21.3727 38.3193 21.2927 38.1633 21.2007C38.0113 21.1087 37.8753 21.0087 37.7553 20.9007L38.0553 20.4087C38.0913 20.3487 38.1353 20.3027 38.1873 20.2707C38.2433 20.2347 38.3113 20.2167 38.3913 20.2167C38.4753 20.2167 38.5573 20.2447 38.6373 20.3007C38.7213 20.3527 38.8173 20.4107 38.9253 20.4747C39.0373 20.5387 39.1713 20.5987 39.3273 20.6547C39.4833 20.7067 39.6773 20.7327 39.9093 20.7327C40.1013 20.7327 40.2673 20.7107 40.4073 20.6667C40.5473 20.6187 40.6633 20.5547 40.7553 20.4747C40.8473 20.3947 40.9153 20.3047 40.9593 20.2047C41.0033 20.1007 41.0253 19.9907 41.0253 19.8747C41.0253 19.7187 40.9813 19.5907 40.8933 19.4907C40.8053 19.3907 40.6873 19.3047 40.5393 19.2327C40.3953 19.1607 40.2293 19.0967 40.0413 19.0407C39.8573 18.9847 39.6693 18.9247 39.4773 18.8607C39.2853 18.7967 39.0953 18.7227 38.9073 18.6387C38.7233 18.5547 38.5573 18.4487 38.4093 18.3207C38.2653 18.1887 38.1493 18.0307 38.0613 17.8467C37.9733 17.6587 37.9293 17.4307 37.9293 17.1627C37.9293 16.9187 37.9773 16.6867 38.0733 16.4667C38.1733 16.2467 38.3173 16.0527 38.5053 15.8847C38.6973 15.7167 38.9313 15.5847 39.2073 15.4887C39.4873 15.3887 39.8093 15.3387 40.1733 15.3387C40.5853 15.3387 40.9593 15.4047 41.2953 15.5367C41.6313 15.6687 41.9133 15.8487 42.1413 16.0767L41.8533 16.5447ZM44.4876 16.1607C44.7396 15.9127 45.0156 15.7147 45.3156 15.5667C45.6156 15.4147 45.9656 15.3387 46.3656 15.3387C46.7016 15.3387 46.9956 15.3947 47.2476 15.5067C47.5036 15.6187 47.7176 15.7767 47.8896 15.9807C48.0656 16.1847 48.1976 16.4307 48.2856 16.7187C48.3736 17.0027 48.4176 17.3167 48.4176 17.6607V21.5547H47.1336V17.6607C47.1336 17.2487 47.0376 16.9287 46.8456 16.7007C46.6576 16.4727 46.3696 16.3587 45.9816 16.3587C45.6936 16.3587 45.4256 16.4247 45.1776 16.5567C44.9336 16.6887 44.7036 16.8687 44.4876 17.0967V21.5547H43.1976V12.6747H44.4876V16.1607Z" fill="white"/>
<path d="M85.3166 32.7727V81.5H79.6064L53.0538 43.2415H52.578V81.5H46.6774V32.7727H52.3877L79.0354 71.1264H79.5112V32.7727H85.3166ZM58.6689 28.3949L54.2911 28.2045C54.2911 25.7777 54.981 23.795 56.361 22.2564C57.7569 20.7019 59.4779 19.9247 61.524 19.9247C62.4281 19.9247 63.2292 20.0833 63.9271 20.4006C64.625 20.7019 65.2912 21.0509 65.9256 21.4474C66.5601 21.844 67.2104 22.2009 67.8766 22.5181C68.5587 22.8195 69.328 22.9702 70.1845 22.9702C71.0886 22.9702 71.85 22.6212 72.4686 21.9233C73.1031 21.2095 73.4203 20.353 73.4203 19.3537L77.703 19.7344C77.703 22.2088 77.0051 24.1757 75.6092 25.6349C74.2293 27.0942 72.5162 27.8239 70.47 27.8239C69.3756 27.8239 68.4715 27.6732 67.7577 27.3718C67.0439 27.0546 66.4094 26.6977 65.8543 26.3011C65.2991 25.9046 64.7122 25.5556 64.0936 25.2543C63.475 24.937 62.7136 24.7784 61.8095 24.7784C60.9054 24.7784 60.152 25.1353 59.5492 25.8491C58.9623 26.547 58.6689 27.3956 58.6689 28.3949Z" fill="white"/>
<defs>
<linearGradient id="paint0_linear_385_676" x1="66" y1="0" x2="66" y2="114" gradientUnits="userSpaceOnUse">
<stop stop-color="#8D81E3"/>
<stop offset="1" stop-color="#6C60CA"/>
</linearGradient>
</defs>
</svg>
