<svg width="132" height="114" viewBox="0 0 132 114" fill="none" xmlns="http://www.w3.org/2000/svg">
<rect x="0.5" width="131" height="114" rx="19" fill="url(#paint0_linear_385_674)"/>
<path d="M16.0997 20.4207L16.0937 21.5547H10.7057V12.9147H16.0937V14.0487H12.1157V16.6527H15.2957V17.7507H12.1157V20.4207H16.0997ZM18.2051 16.2447C18.3371 16.1087 18.4731 15.9867 18.6131 15.8787C18.7571 15.7667 18.9091 15.6707 19.0691 15.5907C19.2291 15.5107 19.3991 15.4487 19.5791 15.4047C19.7591 15.3607 19.9551 15.3387 20.1671 15.3387C20.5031 15.3387 20.7971 15.3947 21.0491 15.5067C21.3051 15.6187 21.5191 15.7767 21.6911 15.9807C21.8671 16.1847 21.9991 16.4307 22.0871 16.7187C22.1751 17.0027 22.2191 17.3167 22.2191 17.6607V21.5547H20.9351V17.6607C20.9351 17.2487 20.8391 16.9287 20.6471 16.7007C20.4591 16.4727 20.1711 16.3587 19.7831 16.3587C19.4951 16.3587 19.2271 16.4247 18.9791 16.5567C18.7351 16.6887 18.5051 16.8687 18.2891 17.0967V21.5547H16.9991V15.4347H17.7791C17.9551 15.4347 18.0671 15.5167 18.1151 15.6807L18.2051 16.2447ZM25.6697 18.4407C26.0697 18.4407 26.3697 18.3387 26.5697 18.1347C26.7697 17.9307 26.8697 17.6647 26.8697 17.3367C26.8697 17.0007 26.7697 16.7347 26.5697 16.5387C26.3697 16.3427 26.0697 16.2447 25.6697 16.2447C25.2737 16.2447 24.9737 16.3427 24.7697 16.5387C24.5697 16.7347 24.4697 17.0007 24.4697 17.3367C24.4697 17.4967 24.4957 17.6447 24.5477 17.7807C24.5997 17.9167 24.6757 18.0347 24.7757 18.1347C24.8757 18.2307 24.9997 18.3067 25.1477 18.3627C25.2997 18.4147 25.4737 18.4407 25.6697 18.4407ZM27.4637 21.8547C27.4637 21.7187 27.4237 21.6107 27.3437 21.5307C27.2677 21.4467 27.1637 21.3827 27.0317 21.3387C26.8997 21.2907 26.7457 21.2567 26.5697 21.2367C26.3937 21.2127 26.2057 21.1967 26.0057 21.1887C25.8097 21.1767 25.6077 21.1667 25.3997 21.1587C25.1957 21.1467 24.9977 21.1267 24.8057 21.0987C24.6137 21.1987 24.4557 21.3187 24.3317 21.4587C24.2117 21.5987 24.1517 21.7607 24.1517 21.9447C24.1517 22.0647 24.1817 22.1767 24.2417 22.2807C24.3057 22.3847 24.4017 22.4747 24.5297 22.5507C24.6617 22.6267 24.8277 22.6867 25.0277 22.7307C25.2317 22.7747 25.4757 22.7967 25.7597 22.7967C26.3277 22.7967 26.7537 22.7087 27.0377 22.5327C27.3217 22.3567 27.4637 22.1307 27.4637 21.8547ZM28.7597 15.6567V16.1367C28.7597 16.2967 28.6637 16.3947 28.4717 16.4307L27.8597 16.5327C27.9637 16.7647 28.0157 17.0227 28.0157 17.3067C28.0157 17.6067 27.9557 17.8787 27.8357 18.1227C27.7197 18.3667 27.5577 18.5747 27.3497 18.7467C27.1417 18.9187 26.8937 19.0507 26.6057 19.1427C26.3177 19.2347 26.0057 19.2807 25.6697 19.2807C25.5417 19.2807 25.4157 19.2747 25.2917 19.2627C25.1717 19.2467 25.0537 19.2267 24.9377 19.2027C24.8217 19.2707 24.7357 19.3427 24.6797 19.4187C24.6237 19.4947 24.5957 19.5727 24.5957 19.6527C24.5957 19.7847 24.6537 19.8827 24.7697 19.9467C24.8857 20.0107 25.0377 20.0567 25.2257 20.0847C25.4177 20.1127 25.6357 20.1307 25.8797 20.1387C26.1237 20.1467 26.3717 20.1607 26.6237 20.1807C26.8757 20.2007 27.1237 20.2347 27.3677 20.2827C27.6117 20.3267 27.8277 20.4027 28.0157 20.5107C28.2077 20.6147 28.3617 20.7567 28.4777 20.9367C28.5937 21.1167 28.6517 21.3507 28.6517 21.6387C28.6517 21.9027 28.5857 22.1607 28.4537 22.4127C28.3217 22.6647 28.1297 22.8887 27.8777 23.0847C27.6297 23.2807 27.3257 23.4367 26.9657 23.5527C26.6057 23.6727 26.1957 23.7327 25.7357 23.7327C25.2797 23.7327 24.8817 23.6887 24.5417 23.6007C24.2057 23.5127 23.9237 23.3927 23.6957 23.2407C23.4717 23.0927 23.3037 22.9207 23.1917 22.7247C23.0837 22.5287 23.0297 22.3247 23.0297 22.1127C23.0297 21.8247 23.1197 21.5787 23.2997 21.3747C23.4837 21.1707 23.7317 21.0107 24.0437 20.8947C23.8757 20.8147 23.7397 20.7047 23.6357 20.5647C23.5357 20.4247 23.4857 20.2407 23.4857 20.0127C23.4857 19.8327 23.5517 19.6447 23.6837 19.4487C23.8157 19.2527 24.0137 19.0867 24.2777 18.9507C23.9737 18.7827 23.7337 18.5607 23.5577 18.2847C23.3817 18.0047 23.2937 17.6787 23.2937 17.3067C23.2937 17.0027 23.3517 16.7287 23.4677 16.4847C23.5877 16.2407 23.7537 16.0327 23.9657 15.8607C24.1777 15.6887 24.4277 15.5567 24.7157 15.4647C25.0077 15.3727 25.3257 15.3267 25.6697 15.3267C26.1977 15.3267 26.6577 15.4367 27.0497 15.6567H28.7597ZM30.8527 12.6747V21.5547H29.5627V12.6747H30.8527ZM33.5489 15.4347V21.5547H32.2589V15.4347H33.5489ZM33.7649 13.5867C33.7649 13.7027 33.7409 13.8127 33.6929 13.9167C33.6489 14.0207 33.5869 14.1127 33.5069 14.1927C33.4269 14.2687 33.3329 14.3307 33.2249 14.3787C33.1209 14.4227 33.0089 14.4447 32.8889 14.4447C32.7729 14.4447 32.6629 14.4227 32.5589 14.3787C32.4589 14.3307 32.3709 14.2687 32.2949 14.1927C32.2189 14.1127 32.1569 14.0207 32.1089 13.9167C32.0649 13.8127 32.0429 13.7027 32.0429 13.5867C32.0429 13.4667 32.0649 13.3547 32.1089 13.2507C32.1569 13.1467 32.2189 13.0567 32.2949 12.9807C32.3709 12.9007 32.4589 12.8387 32.5589 12.7947C32.6629 12.7467 32.7729 12.7227 32.8889 12.7227C33.0089 12.7227 33.1209 12.7467 33.2249 12.7947C33.3329 12.8387 33.4269 12.9007 33.5069 12.9807C33.5869 13.0567 33.6489 13.1467 33.6929 13.2507C33.7409 13.3547 33.7649 13.4667 33.7649 13.5867ZM38.5837 16.5447C38.5517 16.6007 38.5157 16.6407 38.4757 16.6647C38.4357 16.6887 38.3857 16.7007 38.3257 16.7007C38.2577 16.7007 38.1837 16.6807 38.1037 16.6407C38.0237 16.5967 37.9297 16.5487 37.8217 16.4967C37.7137 16.4447 37.5857 16.3987 37.4377 16.3587C37.2937 16.3147 37.1237 16.2927 36.9277 16.2927C36.7677 16.2927 36.6217 16.3127 36.4897 16.3527C36.3617 16.3887 36.2517 16.4427 36.1597 16.5147C36.0717 16.5827 36.0037 16.6647 35.9557 16.7607C35.9077 16.8527 35.8837 16.9527 35.8837 17.0607C35.8837 17.2047 35.9277 17.3247 36.0157 17.4207C36.1037 17.5167 36.2197 17.6007 36.3637 17.6727C36.5077 17.7407 36.6717 17.8027 36.8557 17.8587C37.0397 17.9147 37.2277 17.9747 37.4197 18.0387C37.6117 18.1027 37.7997 18.1767 37.9837 18.2607C38.1677 18.3447 38.3317 18.4487 38.4757 18.5727C38.6197 18.6927 38.7357 18.8407 38.8237 19.0167C38.9117 19.1887 38.9557 19.3987 38.9557 19.6467C38.9557 19.9347 38.9037 20.2007 38.7997 20.4447C38.6957 20.6887 38.5437 20.9007 38.3437 21.0807C38.1437 21.2607 37.8937 21.4007 37.5937 21.5007C37.2977 21.6007 36.9577 21.6507 36.5737 21.6507C36.3617 21.6507 36.1557 21.6307 35.9557 21.5907C35.7597 21.5547 35.5717 21.5047 35.3917 21.4407C35.2157 21.3727 35.0497 21.2927 34.8937 21.2007C34.7417 21.1087 34.6057 21.0087 34.4857 20.9007L34.7857 20.4087C34.8217 20.3487 34.8657 20.3027 34.9177 20.2707C34.9737 20.2347 35.0417 20.2167 35.1217 20.2167C35.2057 20.2167 35.2877 20.2447 35.3677 20.3007C35.4517 20.3527 35.5477 20.4107 35.6557 20.4747C35.7677 20.5387 35.9017 20.5987 36.0577 20.6547C36.2137 20.7067 36.4077 20.7327 36.6397 20.7327C36.8317 20.7327 36.9977 20.7107 37.1377 20.6667C37.2777 20.6187 37.3937 20.5547 37.4857 20.4747C37.5777 20.3947 37.6457 20.3047 37.6897 20.2047C37.7337 20.1007 37.7557 19.9907 37.7557 19.8747C37.7557 19.7187 37.7117 19.5907 37.6237 19.4907C37.5357 19.3907 37.4177 19.3047 37.2697 19.2327C37.1257 19.1607 36.9597 19.0967 36.7717 19.0407C36.5877 18.9847 36.3997 18.9247 36.2077 18.8607C36.0157 18.7967 35.8257 18.7227 35.6377 18.6387C35.4537 18.5547 35.2877 18.4487 35.1397 18.3207C34.9957 18.1887 34.8797 18.0307 34.7917 17.8467C34.7037 17.6587 34.6597 17.4307 34.6597 17.1627C34.6597 16.9187 34.7077 16.6867 34.8037 16.4667C34.9037 16.2467 35.0477 16.0527 35.2357 15.8847C35.4277 15.7167 35.6617 15.5847 35.9377 15.4887C36.2177 15.3887 36.5397 15.3387 36.9037 15.3387C37.3157 15.3387 37.6897 15.4047 38.0257 15.5367C38.3617 15.6687 38.6437 15.8487 38.8717 16.0767L38.5837 16.5447ZM41.218 16.1607C41.47 15.9127 41.746 15.7147 42.046 15.5667C42.346 15.4147 42.696 15.3387 43.096 15.3387C43.432 15.3387 43.726 15.3947 43.978 15.5067C44.234 15.6187 44.448 15.7767 44.62 15.9807C44.796 16.1847 44.928 16.4307 45.016 16.7187C45.104 17.0027 45.148 17.3167 45.148 17.6607V21.5547H43.864V17.6607C43.864 17.2487 43.768 16.9287 43.576 16.7007C43.388 16.4727 43.1 16.3587 42.712 16.3587C42.424 16.3587 42.156 16.4247 41.908 16.5567C41.664 16.6887 41.434 16.8687 41.218 17.0967V21.5547H39.928V12.6747H41.218V16.1607Z" fill="white"/>
<path d="M74.2555 64.91L67.6225 47.289C67.0865 45.9267 66.5393 44.1958 65.981 42.0965C65.7353 43.1462 65.4673 44.1177 65.177 45.011C64.8867 45.882 64.6187 46.6525 64.373 47.3225L57.74 64.91H74.2555ZM89.096 83H83.0325C82.3402 83 81.7818 82.8325 81.3575 82.4975C80.9332 82.1402 80.6093 81.7047 80.386 81.191L76.366 70.538H55.596L51.576 81.191C51.3973 81.6377 51.0847 82.0508 50.638 82.4305C50.1913 82.8102 49.633 83 48.963 83H42.8995L62.028 34.76H69.9675L89.096 83Z" fill="white"/>
<defs>
<linearGradient id="paint0_linear_385_674" x1="66" y1="0" x2="66" y2="114" gradientUnits="userSpaceOnUse">
<stop stop-color="#61A7FF"/>
<stop offset="1" stop-color="#1E78E5"/>
</linearGradient>
</defs>
</svg>
