<svg width="131" height="114" viewBox="0 0 131 114" fill="none" xmlns="http://www.w3.org/2000/svg">
<rect width="131" height="114" rx="19" fill="url(#paint0_linear_385_677)"/>
<path d="M13.6137 20.4207C13.9457 20.4207 14.2417 20.3647 14.5017 20.2527C14.7657 20.1407 14.9877 19.9847 15.1677 19.7847C15.3517 19.5847 15.4917 19.3447 15.5877 19.0647C15.6837 18.7807 15.7317 18.4667 15.7317 18.1227V12.9147H17.1297V18.1227C17.1297 18.6307 17.0477 19.1007 16.8837 19.5327C16.7237 19.9647 16.4917 20.3387 16.1877 20.6547C15.8837 20.9667 15.5137 21.2127 15.0777 21.3927C14.6457 21.5687 14.1577 21.6567 13.6137 21.6567C13.0697 21.6567 12.5797 21.5687 12.1437 21.3927C11.7117 21.2127 11.3437 20.9667 11.0397 20.6547C10.7357 20.3387 10.5017 19.9647 10.3377 19.5327C10.1777 19.1007 10.0977 18.6307 10.0977 18.1227V12.9147H11.5017V18.1167C11.5017 18.4607 11.5497 18.7747 11.6457 19.0587C11.7417 19.3387 11.8797 19.5807 12.0597 19.7847C12.2397 19.9847 12.4597 20.1407 12.7197 20.2527C12.9837 20.3647 13.2817 20.4207 13.6137 20.4207ZM19.6273 16.5687C19.8193 16.1807 20.0513 15.8767 20.3233 15.6567C20.5953 15.4327 20.9213 15.3207 21.3013 15.3207C21.4333 15.3207 21.5573 15.3367 21.6733 15.3687C21.7893 15.3967 21.8933 15.4407 21.9853 15.5007L21.8953 16.4727C21.8793 16.5407 21.8533 16.5887 21.8173 16.6167C21.7853 16.6407 21.7413 16.6527 21.6853 16.6527C21.6253 16.6527 21.5393 16.6427 21.4273 16.6227C21.3153 16.5987 21.1973 16.5867 21.0733 16.5867C20.8933 16.5867 20.7333 16.6127 20.5933 16.6647C20.4573 16.7167 20.3333 16.7927 20.2213 16.8927C20.1133 16.9927 20.0173 17.1147 19.9333 17.2587C19.8493 17.4027 19.7713 17.5667 19.6993 17.7507V21.5547H18.4093V15.4347H19.1593C19.2953 15.4347 19.3893 15.4607 19.4413 15.5127C19.4933 15.5607 19.5293 15.6467 19.5493 15.7707L19.6273 16.5687ZM26.3058 16.9407C26.1258 16.7087 25.9278 16.5467 25.7118 16.4547C25.4958 16.3627 25.2618 16.3167 25.0098 16.3167C24.5058 16.3167 24.1118 16.5027 23.8278 16.8747C23.5438 17.2427 23.4018 17.7887 23.4018 18.5127C23.4018 18.8887 23.4338 19.2107 23.4978 19.4787C23.5618 19.7427 23.6538 19.9587 23.7738 20.1267C23.8938 20.2947 24.0398 20.4167 24.2118 20.4927C24.3838 20.5687 24.5778 20.6067 24.7938 20.6067C25.1218 20.6067 25.4038 20.5367 25.6398 20.3967C25.8798 20.2527 26.1018 20.0507 26.3058 19.7907V16.9407ZM27.5958 12.6747V21.5547H26.8158C26.6438 21.5547 26.5338 21.4727 26.4858 21.3087L26.3718 20.6427C26.1158 20.9427 25.8238 21.1847 25.4958 21.3687C25.1718 21.5527 24.7938 21.6447 24.3618 21.6447C24.0178 21.6447 23.7058 21.5767 23.4258 21.4407C23.1458 21.3007 22.9058 21.0987 22.7058 20.8347C22.5058 20.5707 22.3498 20.2447 22.2378 19.8567C22.1298 19.4647 22.0758 19.0167 22.0758 18.5127C22.0758 18.0567 22.1358 17.6347 22.2558 17.2467C22.3798 16.8587 22.5558 16.5227 22.7838 16.2387C23.0118 15.9507 23.2878 15.7267 23.6118 15.5667C23.9398 15.4027 24.3058 15.3207 24.7098 15.3207C25.0698 15.3207 25.3758 15.3787 25.6278 15.4947C25.8798 15.6067 26.1058 15.7647 26.3058 15.9687V12.6747H27.5958ZM34.0932 15.4347V21.5547H33.3132C33.1412 21.5547 33.0312 21.4727 32.9832 21.3087L32.8872 20.7387C32.7592 20.8747 32.6232 20.9987 32.4792 21.1107C32.3392 21.2227 32.1892 21.3187 32.0292 21.3987C31.8692 21.4787 31.6972 21.5407 31.5132 21.5847C31.3332 21.6287 31.1392 21.6507 30.9312 21.6507C30.5952 21.6507 30.2992 21.5947 30.0432 21.4827C29.7872 21.3707 29.5712 21.2127 29.3952 21.0087C29.2232 20.8047 29.0932 20.5607 29.0052 20.2767C28.9172 19.9887 28.8732 19.6727 28.8732 19.3287V15.4347H30.1632V19.3287C30.1632 19.7407 30.2572 20.0607 30.4452 20.2887C30.6372 20.5167 30.9272 20.6307 31.3152 20.6307C31.5992 20.6307 31.8632 20.5667 32.1072 20.4387C32.3552 20.3067 32.5872 20.1267 32.8032 19.8987V15.4347H34.0932Z" fill="white"/>
<path fill-rule="evenodd" clip-rule="evenodd" d="M49.2579 60.219C47.0004 60.4313 44.4565 60.0379 43.1687 58.455C42.5062 57.6404 43.8612 55.973 44.4814 55.45C48.8165 51.7947 49.9742 56.7326 49.2579 60.219ZM11.2188 55.4257V57.9412C11.3084 58.1709 11.4455 59.4761 11.5329 59.8863C11.6561 60.4643 11.8326 61.1169 11.9853 61.6954C12.5934 63.9998 13.894 65.9189 16.4379 66.3082C17.8299 66.5217 19.212 66.163 20.0955 65.4838C21.937 64.0675 22.3489 62.1803 23.2723 59.5311C23.6813 58.3589 24.1216 57.4159 24.5879 56.3195C25.1086 55.0953 25.4615 54.1748 26.6863 53.8138L25.4858 57.2985C24.4155 60.941 23.922 66.3308 29.2482 66.2776C33.8372 66.2319 38.8828 66.3991 43.3752 66.292C45.2735 66.2469 45.6732 65.9437 47.0433 65.1887C48.9658 66.0676 49.0983 66.2596 51.6479 66.2926L63.0431 66.2978C64.7984 66.2978 67.0461 66.4199 68.7407 66.281C69.1943 65.6111 69.4529 62.9856 69.4847 61.9934C69.6143 58.0141 68.7569 54.0811 67.1103 50.5109C67.0467 50.3732 66.9767 50.2407 66.9084 50.0955C66.7771 49.8166 66.7956 49.8022 66.6041 49.6361C66.4398 50.0399 63.6274 54.3525 63.2323 55.0485C63.4215 55.2475 63.565 55.3244 63.7524 55.5096C65.1305 56.8738 66.2078 58.3711 66.4409 60.5256L52.0107 60.525C52.8085 58.9693 53.0272 58.7807 53.0388 56.61C53.0619 52.2905 52.6378 46.6699 46.6695 49.1333C43.4117 50.4779 40.6607 53.4968 39.3508 56.7234C38.7584 58.1831 38.7329 59.4929 39.6708 60.4915L31.5896 60.5644C28.3011 60.5644 27.1798 60.897 28.3404 56.4063C28.7656 54.7615 30.6905 52.0695 30.3208 50.2233C30.1079 49.1588 28.1535 49.3839 27.214 49.6564C26.08 49.9856 25.3117 50.6179 24.618 51.1976C24.1824 51.5615 24.0186 51.8502 23.6449 52.2546C23.3336 52.5919 23.0617 52.9819 22.7788 53.4164C21.1554 55.9093 19.6552 60.2861 18.1585 61.2054C17.0801 61.8679 15.9247 61.6278 15.1789 60.9213C13.9848 59.7903 13.4693 56.1228 13.3877 54.4207C13.3426 53.4817 13.5272 51.3162 12.7016 51.0194C12.3365 51.1351 12.2503 51.4701 12.0675 51.8398C11.3287 53.3365 11.4774 54.7343 11.2188 55.4239L11.2188 55.4257Z" fill="white"/>
<path fill-rule="evenodd" clip-rule="evenodd" d="M98.4078 60.1323C100.859 58.5378 103.601 56.9942 106.523 56.3023C108.583 55.8146 110.195 55.7098 111.712 56.8756C112.933 57.814 113.967 58.9526 114.444 60.5245L97.9039 60.5228L98.4078 60.1323ZM119.784 59.9801V58.138L119.506 57.1215C118.824 54.956 115.046 50.8286 112.911 50.7059C109.669 50.5191 100.145 55.3963 97.3901 57.5519C96.9597 57.8887 96.767 58.175 96.704 58.0131C98.9592 54.5811 96.6907 48.0319 97.0615 46.63C97.1385 46.339 98.7758 44.7914 99.0176 44.1932C97.8119 43.6094 96.3626 41.4185 95.7881 40.1017C95.6018 39.6753 95.305 38.6941 95.1205 38.3735C94.8341 38.6165 94.62 38.9544 94.3684 39.3119L92.3625 42.3806C91.6833 43.4 91.7226 43.2172 92.4001 44.6554C92.9006 45.7177 94.5871 57.6827 94.6912 59.2378C94.4083 59.3964 94.1821 59.5665 93.931 59.7927C93.0088 60.6235 92.5043 60.5899 90.8311 60.6437C89.2146 60.6952 87.7029 60.4256 86.3595 59.9084C85.3956 59.5375 85.5634 59.3431 85.0855 58.5285C84.7557 57.9656 84.4578 57.4432 84.1211 56.9179C83.7375 56.3196 82.4253 54.1807 82.0169 53.8313L78.8238 58.9821C79.0622 59.3113 80.696 60.3226 81.7883 62.5258C82.1482 63.2507 82.0238 63.3693 81.7322 64.1393C79.7842 69.2809 74.3875 72.4913 69.1574 73.1011C67.8886 73.2492 65.5999 73.0404 65.2695 73.5472C65.4865 73.951 66.2768 74.1141 66.6957 74.2646C69.6515 75.3233 76.0942 76.8565 78.626 75.4714C81.7577 73.7578 84.2252 68.5352 84.3756 64.8081C84.6765 64.9048 84.8043 65.0749 85.078 65.2473C87.4038 66.7098 88.8033 66.2996 91.6862 66.2996H117.924C118.083 65.8605 118.381 65.3531 118.584 64.8562C118.997 63.8477 119.294 62.8139 119.513 61.7181C119.586 61.3484 119.69 60.2185 119.784 59.9824V59.9801Z" fill="white"/>
<path fill-rule="evenodd" clip-rule="evenodd" d="M54.0082 76.5121H54.7152C55.1434 76.1864 54.8842 76.4953 55.4292 75.9237C55.649 75.6929 55.8191 75.5141 56.0459 75.2908C56.4283 74.9142 56.9218 74.3235 57.4229 74.0868C58.5458 74.9084 59.2708 75.9839 60.0929 76.5121H60.5841C60.6014 76.5 60.6257 76.4855 60.6384 76.4774L60.9746 76.239C61.1019 76.1326 61.1777 76.0539 61.2997 75.9399L63.0817 74.2095C64.2214 73.1316 64.2608 73.3295 62.565 71.6812C61.6636 70.8053 60.6523 69.4885 59.7596 70.1047C59.1238 70.5438 58.006 72.1765 57.2666 72.3141C56.7986 72.0503 56.3774 71.5568 56.0106 71.212C54.7418 70.0173 54.6175 69.3618 53.2949 70.5883L50.9766 72.8794C50.7429 73.2375 50.88 73.4701 51.1114 73.6923C52.0956 74.6347 53.0027 75.6269 54.0088 76.5115L54.0082 76.5121Z" fill="white"/>
<path fill-rule="evenodd" clip-rule="evenodd" d="M46.4424 37.4883H45.88C45.184 37.9673 44.6436 38.5384 44.0691 39.0428C43.7677 39.3072 43.5386 39.5809 43.2343 39.8453C41.9406 40.9671 42.5961 41.1551 44.0975 42.6189C45.3784 43.868 45.9112 44.8052 47.1279 43.5822C47.4756 43.2321 49.6192 41.2257 49.666 40.9717C49.7737 40.3862 48.5431 39.4311 48.2197 39.1221C47.5983 38.5285 47.1447 38.0749 46.4429 37.4883H46.4424Z" fill="white"/>
<path fill-rule="evenodd" clip-rule="evenodd" d="M110.526 39.036C109.753 39.2321 108.496 40.7624 107.727 41.43C107.492 41.6342 106.968 41.9576 107.11 42.5136C107.19 42.8295 109.182 44.641 109.664 45.1096C111.096 46.5033 111.568 44.9788 113.538 43.1842C113.783 42.9609 114.354 42.6716 114.171 42.1688C114.09 41.9449 112.061 39.9495 111.642 39.5422C111.397 39.3038 111.067 38.8988 110.527 39.036H110.526Z" fill="white"/>
<defs>
<linearGradient id="paint0_linear_385_677" x1="65.5" y1="0" x2="65.5" y2="114" gradientUnits="userSpaceOnUse">
<stop stop-color="#5F4F87"/>
<stop offset="1" stop-color="#29204D"/>
</linearGradient>
</defs>
</svg>
