<svg width="132" height="114" viewBox="0 0 132 114" fill="none" xmlns="http://www.w3.org/2000/svg">
<rect x="0.5" width="131" height="114" rx="19" fill="#F1F1F1" fill-opacity="0.65"/>
<rect x="0.5" width="131" height="114" rx="19" fill="url(#paint0_linear_385_675)"/>
<path d="M17.8577 12.9147V21.5547H16.4537V17.7087H12.1157V21.5547H10.7057V12.9147H12.1157V16.6947H16.4537V12.9147H17.8577ZM20.6869 15.4347V21.5547H19.3969V15.4347H20.6869ZM20.9029 13.5867C20.9029 13.7027 20.8789 13.8127 20.8309 13.9167C20.7869 14.0207 20.7249 14.1127 20.6449 14.1927C20.5649 14.2687 20.4709 14.3307 20.3629 14.3787C20.2589 14.4227 20.1469 14.4447 20.0269 14.4447C19.9109 14.4447 19.8009 14.4227 19.6969 14.3787C19.5969 14.3307 19.5089 14.2687 19.4329 14.1927C19.3569 14.1127 19.2949 14.0207 19.2469 13.9167C19.2029 13.8127 19.1809 13.7027 19.1809 13.5867C19.1809 13.4667 19.2029 13.3547 19.2469 13.2507C19.2949 13.1467 19.3569 13.0567 19.4329 12.9807C19.5089 12.9007 19.5969 12.8387 19.6969 12.7947C19.8009 12.7467 19.9109 12.7227 20.0269 12.7227C20.1469 12.7227 20.2589 12.7467 20.3629 12.7947C20.4709 12.8387 20.5649 12.9007 20.6449 12.9807C20.7249 13.0567 20.7869 13.1467 20.8309 13.2507C20.8789 13.3547 20.9029 13.4667 20.9029 13.5867ZM23.2737 16.2447C23.4057 16.1087 23.5417 15.9867 23.6817 15.8787C23.8257 15.7667 23.9777 15.6707 24.1377 15.5907C24.2977 15.5107 24.4677 15.4487 24.6477 15.4047C24.8277 15.3607 25.0237 15.3387 25.2357 15.3387C25.5717 15.3387 25.8657 15.3947 26.1177 15.5067C26.3737 15.6187 26.5877 15.7767 26.7597 15.9807C26.9357 16.1847 27.0677 16.4307 27.1557 16.7187C27.2437 17.0027 27.2877 17.3167 27.2877 17.6607V21.5547H26.0037V17.6607C26.0037 17.2487 25.9077 16.9287 25.7157 16.7007C25.5277 16.4727 25.2397 16.3587 24.8517 16.3587C24.5637 16.3587 24.2957 16.4247 24.0477 16.5567C23.8037 16.6887 23.5737 16.8687 23.3577 17.0967V21.5547H22.0677V15.4347H22.8477C23.0237 15.4347 23.1357 15.5167 23.1837 15.6807L23.2737 16.2447ZM32.4603 16.9407C32.2803 16.7087 32.0823 16.5467 31.8663 16.4547C31.6503 16.3627 31.4163 16.3167 31.1643 16.3167C30.6603 16.3167 30.2663 16.5027 29.9823 16.8747C29.6983 17.2427 29.5563 17.7887 29.5563 18.5127C29.5563 18.8887 29.5883 19.2107 29.6523 19.4787C29.7163 19.7427 29.8083 19.9587 29.9283 20.1267C30.0483 20.2947 30.1943 20.4167 30.3663 20.4927C30.5383 20.5687 30.7323 20.6067 30.9483 20.6067C31.2763 20.6067 31.5583 20.5367 31.7943 20.3967C32.0343 20.2527 32.2563 20.0507 32.4603 19.7907V16.9407ZM33.7503 12.6747V21.5547H32.9703C32.7983 21.5547 32.6883 21.4727 32.6403 21.3087L32.5263 20.6427C32.2703 20.9427 31.9783 21.1847 31.6503 21.3687C31.3263 21.5527 30.9483 21.6447 30.5163 21.6447C30.1723 21.6447 29.8603 21.5767 29.5803 21.4407C29.3003 21.3007 29.0603 21.0987 28.8603 20.8347C28.6603 20.5707 28.5043 20.2447 28.3923 19.8567C28.2843 19.4647 28.2303 19.0167 28.2303 18.5127C28.2303 18.0567 28.2903 17.6347 28.4103 17.2467C28.5343 16.8587 28.7103 16.5227 28.9383 16.2387C29.1663 15.9507 29.4423 15.7267 29.7663 15.5667C30.0943 15.4027 30.4603 15.3207 30.8643 15.3207C31.2243 15.3207 31.5303 15.3787 31.7823 15.4947C32.0343 15.6067 32.2603 15.7647 32.4603 15.9687V12.6747H33.7503ZM36.4317 15.4347V21.5547H35.1417V15.4347H36.4317ZM36.6477 13.5867C36.6477 13.7027 36.6237 13.8127 36.5757 13.9167C36.5317 14.0207 36.4697 14.1127 36.3897 14.1927C36.3097 14.2687 36.2157 14.3307 36.1077 14.3787C36.0037 14.4227 35.8917 14.4447 35.7717 14.4447C35.6557 14.4447 35.5457 14.4227 35.4417 14.3787C35.3417 14.3307 35.2537 14.2687 35.1777 14.1927C35.1017 14.1127 35.0397 14.0207 34.9917 13.9167C34.9477 13.8127 34.9257 13.7027 34.9257 13.5867C34.9257 13.4667 34.9477 13.3547 34.9917 13.2507C35.0397 13.1467 35.1017 13.0567 35.1777 12.9807C35.2537 12.9007 35.3417 12.8387 35.4417 12.7947C35.5457 12.7467 35.6557 12.7227 35.7717 12.7227C35.8917 12.7227 36.0037 12.7467 36.1077 12.7947C36.2157 12.8387 36.3097 12.9007 36.3897 12.9807C36.4697 13.0567 36.5317 13.1467 36.5757 13.2507C36.6237 13.3547 36.6477 13.4667 36.6477 13.5867Z" fill="white"/>
<g clip-path="url(#clip0_385_675)">
<path d="M93 34.8193V40.5602H80.8826V86.8193H79.2563L74.6207 81.2451V62.9411C72.7221 63.7184 69.8491 64.1061 66.0002 64.1061C66.0002 64.6051 66.0814 65.3539 66.2441 66.3521C66.2441 69.5698 65.2274 72.1488 63.1943 74.0898C61.1611 76.0322 58.5446 77.0017 55.3463 77.0017C50.8456 77.0017 47.0512 74.8671 43.9608 70.5953C41.2493 66.9348 39.596 62.6369 39 57.6995H41.0331C41.6836 61.2499 43.0383 64.3011 45.0995 66.8515C47.4845 69.8469 50.3042 71.3441 53.5573 71.3441C55.7251 71.3441 57.583 70.6653 59.1281 69.3059C60.6733 67.9472 61.4458 66.1858 61.4458 64.0228C61.4458 61.8596 60.6047 60.1122 58.9249 58.7812C57.2437 57.4499 55.3186 56.7842 53.1507 56.7842C52.2282 56.7842 50.711 57.0067 48.5965 57.4499L44.2049 52.125C47.8911 51.8483 51.1442 51.1551 53.9639 50.0451C58.1929 48.4369 60.3073 46.1904 60.3073 43.3057C60.3073 41.7535 59.6834 40.5328 58.4368 39.6448C57.189 38.7583 55.7798 38.3136 54.2078 38.3136C51.2254 38.3136 47.3486 39.6734 42.5784 42.3905L39 37.149C42.6317 35.5966 46.2648 34.8193 49.8976 34.8193C53.6385 34.8193 56.7556 35.7631 59.25 37.6481C62.123 39.7568 63.5603 42.64 63.5603 46.3009C63.6136 50.2399 61.1206 53.2066 56.0784 55.2033C60.3606 57.2558 63.9935 58.2816 66.976 58.2816C69.7944 58.2816 71.7742 57.7136 72.9125 56.576C74.0512 55.4398 74.6206 53.4286 74.6206 50.5439V40.5602H68.6023L64.211 34.8193H93Z" fill="white"/>
</g>
<defs>
<linearGradient id="paint0_linear_385_675" x1="66" y1="0" x2="66" y2="114" gradientUnits="userSpaceOnUse">
<stop stop-color="#FA5253"/>
<stop offset="1" stop-color="#FD7644"/>
</linearGradient>
<clipPath id="clip0_385_675">
<rect width="54" height="52" fill="white" transform="translate(39 34.8193)"/>
</clipPath>
</defs>
</svg>
