<svg width="482" height="622" viewBox="0 0 482 622" fill="none" xmlns="http://www.w3.org/2000/svg">
<path fill-rule="evenodd" clip-rule="evenodd" d="M0.0664062 0.362305H481.401V621.155H0.0664062V0.362305Z" fill="#FEFEFE"/>
<mask id="mask0_135_782" style="mask-type:luminance" maskUnits="userSpaceOnUse" x="0" y="0" width="482" height="622">
<path d="M0.0664062 0.362305H481.401V621.155H0.0664062V0.362305Z" fill="white"/>
</mask>
<g mask="url(#mask0_135_782)">
<path d="M-23.7188 788.881H487.886V-92.6592H-23.7188V788.881Z" fill="#B63EFF"/>
<path d="M168.93 0.721607L172.486 -29.2796L205.326 -32.6562L168.93 0.721607Z" fill="#A034ED"/>
<path d="M407.775 3.23114L389.547 -46.7012L417.905 -30.8041L407.775 3.23114Z" fill="#A034ED"/>
<path d="M38.7031 24.7166L-14.7852 -9.91631L9.32937 -75.2676L38.7031 24.7166Z" fill="#A034ED"/>
<path d="M302.855 33.6806L237.922 -41.7109L298.104 -32.6568L302.855 33.6806Z" fill="#A034ED"/>
<path d="M259.617 49.667L160.828 47.0076L207.683 8.84863L259.617 49.667Z" fill="#A034ED"/>
<path d="M114.482 66.2519L84.5703 14.2278L132.859 -30.1465L114.482 66.2519Z" fill="#A034ED"/>
<path d="M58.6066 73.1842L47.3711 47.3066L83.9463 68.3434L58.6066 73.1842Z" fill="#A034ED"/>
<path d="M452.718 86.5118L450.477 -9.79688L487.888 31.7088V36.8186L452.718 86.5118Z" fill="#A034ED"/>
<path d="M24.7792 87.4682L-23.7188 70.5551V3.76953L24.7792 87.4682Z" fill="#A034ED"/>
<path d="M417.934 88.0056L342.961 30.6327L400.603 27.3457L417.934 88.0056Z" fill="#A034ED"/>
<path d="M337.284 91.6512L307.76 87.2287L305.43 54.6875L337.284 91.6512Z" fill="#A034ED"/>
<path d="M144.961 108.653L178.279 76.2617L175.739 104.56L144.961 108.653Z" fill="#A034ED"/>
<path d="M246.502 112.21L242.289 71.0029L260.666 88.424L246.502 112.21Z" fill="#A034ED"/>
<path d="M-22.8516 134.592L20.9251 96.8809L71.6344 134.502L-22.8516 134.592Z" fill="#A034ED"/>
<path d="M482.18 138.655L467.508 109.759L487.887 92.876V115.287L482.18 138.655Z" fill="#A034ED"/>
<path d="M344.188 144.154L309.047 128.346L365.374 115.945L344.188 144.154Z" fill="#A034ED"/>
<path d="M410.848 145.737L394.562 99.5693L455.312 140.477L410.848 145.737Z" fill="#A034ED"/>
<path d="M172.273 151.444L196.029 124.013L230.931 142.749L172.273 151.444Z" fill="#A034ED"/>
<path d="M124.285 153.865L98.2578 134.292L112.84 101.841L124.285 153.865Z" fill="#A034ED"/>
<path d="M305.042 191.815C302.383 188.379 299.783 184.255 297.9 181.117C300.888 180.878 303.219 178.368 303.219 175.32C303.219 172.093 300.62 169.493 297.392 169.493C294.165 169.493 291.565 172.093 291.565 175.32C291.565 176.187 291.745 176.994 292.103 177.741C289.205 179.026 284.663 180.938 280.24 182.343L279.493 180.46C281.077 179.295 282.123 177.412 282.123 175.32C282.123 171.794 279.284 168.956 275.758 168.956C275.459 168.956 275.19 168.985 274.921 169.015L263.477 140.389L311.975 165.669L305.042 191.845V191.815Z" fill="#A034ED"/>
<path d="M140.031 193.846L128.945 185.958L150.58 183.985C149.414 186.017 148.04 188.288 146.635 190.41C146.366 190.38 146.097 190.35 145.828 190.35C143.318 190.35 141.137 191.755 140.002 193.846H140.031Z" fill="#A034ED"/>
<path d="M342.335 209.475C342.335 209.445 342.305 209.415 342.305 209.385L384.528 149.233L388.92 194.056L342.305 209.475H342.335Z" fill="#A034ED"/>
<path d="M417.75 217.991L487.882 164.742V194.235L482.922 217.334L417.75 217.991Z" fill="#A034ED"/>
<path d="M84.0633 228.958L10.375 167.312L73.4851 166.445L88.1869 227.912C86.8124 228.3 85.4378 228.629 84.0633 228.958Z" fill="#A034ED"/>
<path d="M426.273 255.881L379.688 238.011L408.404 227.702L426.273 255.881Z" fill="#A034ED"/>
<path d="M29.5586 266.489L13.6914 216.467L71.5125 258.152C71.4229 258.361 71.3631 258.54 71.2734 258.72C70.6758 260.004 69.4208 261.558 67.837 263.202L29.5586 266.489Z" fill="#A034ED"/>
<path d="M487.889 281.221L466.195 256.359L487.889 259.467V281.221Z" fill="#A034ED"/>
<path d="M419.934 304.05L397.074 277.336C397.552 276.38 397.851 275.812 397.851 275.812C397.851 275.812 395.61 274.318 392.622 272.107L389.484 268.461L457.794 284.029L419.904 304.05H419.934Z" fill="#A034ED"/>
<path d="M54.5713 326.94L33.8633 320.874L60.0396 309.011C57.2905 316.66 52.629 325.625 52.629 325.625C52.629 325.625 53.376 326.103 54.5713 326.94Z" fill="#A034ED"/>
<path d="M-23.7188 329.48V288.901L-22.8821 232.753L15.3366 278.562L-23.7188 329.48Z" fill="#A034ED"/>
<path d="M405.745 359.361L377.477 346.811C377.745 345.227 378.104 343.882 378.582 342.926C380.256 339.43 386.77 333.932 391.82 329.987L405.745 359.361Z" fill="#A034ED"/>
<path d="M477.102 378.934L487.889 339.699V370.507L477.102 378.934Z" fill="#A034ED"/>
<path d="M8.10526 381.922L-23.7188 360.108V349.5L45.8757 346.811L8.10526 381.922Z" fill="#A034ED"/>
<path d="M462.991 417.272L418.945 365.607L463.469 306.262L462.991 417.272Z" fill="#A034ED"/>
<path d="M-5.01281 420.111L-23.7188 405.439V401.046L17.0698 402.122L-5.01281 420.111Z" fill="#A034ED"/>
<path d="M359.453 421.037L386.586 379.89L390.411 409.801L359.453 421.037Z" fill="#A034ED"/>
<path d="M307.996 422.979L307.727 406.007C308.802 404.961 309.818 404.154 310.804 403.795C312.508 403.138 315.227 402.899 318.305 402.899C320.277 402.899 322.369 402.989 324.49 403.138L307.996 422.95V422.979Z" fill="#A034ED"/>
<path d="M487.885 437.771L478.203 426.057L487.885 413.597V437.771Z" fill="#A034ED"/>
<path d="M157.453 455.849L135.609 402.152C136.894 402.301 138 402.57 138.837 402.989C144.873 405.917 154.166 425.101 154.166 425.101C154.166 425.101 160.112 422.74 166.537 420.768L157.453 455.849Z" fill="#A034ED"/>
<path d="M57.4062 463.499L62.277 364.172L99.6291 412.192L57.4062 463.499Z" fill="#A034ED"/>
<path d="M435.594 499.447L467.926 439.146L476.98 479.994L435.594 499.447Z" fill="#A034ED"/>
<path d="M313.288 504.228L302.352 464.365L342.244 443.149L313.288 504.228Z" fill="#A034ED"/>
<path d="M405.981 504.377L385.781 457.881L430.484 425.19L405.981 504.377Z" fill="#A034ED"/>
<path d="M78.2088 505.393L42.5898 489.287L65.5091 482.563L78.2088 505.393Z" fill="#A034ED"/>
<path d="M286.098 515.702L185.188 470.342L250.091 451.128L286.098 515.702Z" fill="#A034ED"/>
<path d="M487.887 524.906L475.188 497.654L487.887 503.391V524.906Z" fill="#A034ED"/>
<path d="M146.634 530.016L111.344 466.995L152.82 482.145L146.634 530.016Z" fill="#A034ED"/>
<path d="M-23.7188 562.437V552.606L17.7869 505.154L-23.7188 460.122V441.476L16.263 446.168L23.076 510.921L20.7751 508.411L20.4165 552.905L-23.7188 562.437Z" fill="#A034ED"/>
<path d="M190.68 564.2L208.878 511.728L221.368 543.313L190.68 564.2Z" fill="#A034ED"/>
<path d="M314.664 565.067L367.435 481.488L376.28 541.311L314.664 565.067Z" fill="#A034ED"/>
<path d="M454.776 566.591L438.281 524.906L462.575 537.635L454.776 566.591Z" fill="#A034ED"/>
<path d="M291.564 582.667L244.172 546.63L280.538 544.449L291.564 582.667Z" fill="#A034ED"/>
<path d="M91.115 591.781L58.9922 530.523L98.3165 546.122L91.115 591.781Z" fill="#A034ED"/>
<path d="M440.256 601.761L402.008 591.93L403.323 548.781L440.256 601.761Z" fill="#A034ED"/>
<path d="M140.75 604.511L128.977 577.737L154.705 558.762L140.75 604.511Z" fill="#A034ED"/>
<path d="M316.242 613.206L335.934 579.918L376.125 592.917L316.242 613.206Z" fill="#A034ED"/>
<path d="M261.773 636.066L242.828 603.823L294.374 625.607L261.773 636.066Z" fill="#A034ED"/>
<path d="M19.9683 637.619L-23.7188 604.272V601.821L9.15112 599.879L19.9683 637.619Z" fill="#A034ED"/>
<path d="M97.8426 649.065L52.0938 638.158L52.7213 586.761L97.8426 649.065Z" fill="#A034ED"/>
<path d="M226.567 666.814L171.047 637.141L189.364 570.834L226.567 666.814Z" fill="#A034ED"/>
<path d="M444.888 686.895L386.798 677.661L382.734 613.535L444.888 686.895Z" fill="#A034ED"/>
<path d="M487.885 692.393L444.766 660.838L472.825 596.383L487.885 661.077V692.393Z" fill="#A034ED"/>
<path d="M323.086 721.975L327.867 614.252L368.596 666.097L323.086 721.975Z" fill="#A034ED"/>
<path d="M99.6336 376.544L88.2188 266.489L137.404 312.985L99.6336 376.544Z" fill="#A034ED"/>
<path d="M230.931 214.704L207.175 242.136L172.273 223.4L230.931 214.704Z" fill="#A034ED"/>
<path d="M149.358 276.858L130.383 244.615L181.929 266.369L149.358 276.858Z" fill="#A034ED"/>
<path d="M244.98 246.498L244.711 229.526C245.787 228.48 246.803 227.673 247.789 227.314C249.492 226.657 252.211 226.418 255.289 226.418C257.261 226.418 259.353 226.508 261.475 226.657L244.98 246.469V246.498Z" fill="#A034ED"/>
<path d="M261.805 272.674L288.907 231.497L292.762 261.409L261.805 272.674Z" fill="#A034ED"/>
<path d="M358.618 308.503L311.555 362.857L319.563 255.582L358.618 308.503Z" fill="#A034ED"/>
<path d="M230.125 359.81L208.281 306.112C209.566 306.262 210.672 306.531 211.508 306.949C217.545 309.877 226.838 329.061 226.838 329.061C226.838 329.061 232.784 326.701 239.209 324.729L230.125 359.81Z" fill="#A034ED"/>
<path d="M191.252 398.626L155.633 382.52L178.552 375.767L191.252 398.626Z" fill="#A034ED"/>
<path d="M229.766 434.215L226.867 394.412L244.079 411.714L229.766 434.215Z" fill="#A034ED"/>
</g>
</svg>
