<svg width="25" height="25" viewBox="0 0 25 25" fill="none" xmlns="http://www.w3.org/2000/svg">
<path d="M15.5342 24.8148H8.86532C2.82886 24.8148 0.25 22.1682 0.25 15.9738V9.12911C0.25 2.93467 2.82886 0.288086 8.86532 0.288086H11.0874C11.5435 0.288086 11.9213 0.675964 11.9213 1.14374C11.9213 1.61138 11.5435 1.99926 11.0874 1.99926H8.86532C3.73978 1.99926 1.91653 3.87009 1.91653 9.12911V15.9738C1.91653 21.2328 3.73978 23.1037 8.86532 23.1037H15.5342C20.6584 23.1037 22.4817 21.2328 22.4817 15.9738V13.6923C22.4817 13.2245 22.8594 12.8366 23.3156 12.8366C23.7718 12.8366 24.1496 13.2245 24.1496 13.6923V15.9738C24.1496 22.1682 21.5707 24.8148 15.5342 24.8148Z" fill="white"/>
<path d="M8.31167 19.0424C7.63302 19.0424 7.01033 18.7915 6.55416 18.3352C6.00984 17.7762 5.77616 16.9662 5.8993 16.1107L6.37646 12.677C6.46601 12.0153 6.8886 11.1598 7.34337 10.692L16.1028 1.70264C18.3151 -0.567545 20.5609 -0.567545 22.7731 1.70264C23.9849 2.94603 24.5292 4.21237 24.4187 5.47857C24.3179 6.50522 23.7848 7.5092 22.7731 8.53584L14.0137 17.5252C13.5575 17.993 12.7236 18.4265 12.0799 18.5177L8.73284 19.0083C8.58871 19.0424 8.4446 19.0424 8.31167 19.0424ZM17.281 2.91189L8.52294 11.9012C8.31165 12.118 8.06679 12.6199 8.02202 12.9165L7.54345 16.3502C7.50007 16.681 7.56584 16.9548 7.73375 17.126C7.90027 17.2971 8.16614 17.3655 8.48937 17.3199L11.835 16.8293C12.1233 16.7837 12.6242 16.5327 12.8243 16.3159L21.5838 7.32659C22.3058 6.58512 22.6836 5.92354 22.7396 5.30744C22.8067 4.56597 22.4289 3.77887 21.5838 2.90041C19.8053 1.0752 18.5823 1.5886 17.281 2.91189Z" fill="white"/>
<path d="M20.9309 10.0758C20.8539 10.0758 20.7756 10.0644 20.7084 10.0416C17.7853 9.19737 15.4625 6.81315 14.6397 3.81297C14.518 3.35667 14.7727 2.88889 15.2177 2.75204C15.6626 2.62653 16.1188 2.88889 16.2405 3.34519C16.908 5.77503 18.7858 7.70295 21.1534 8.38747C21.5983 8.51299 21.8544 8.9921 21.7313 9.4484C21.6319 9.83628 21.2989 10.0758 20.9309 10.0758Z" fill="white"/>
</svg>
