<svg width="132" height="114" viewBox="0 0 132 114" fill="none" xmlns="http://www.w3.org/2000/svg">
<rect x="0.5" width="131" height="114" rx="19" fill="url(#paint0_linear_385_678)"/>
<path d="M15.1157 14.0487V16.8147H18.4937V17.9487H15.1157V21.5547H13.7057V12.9147H19.0937V14.0487H15.1157ZM20.7367 16.5687C20.9287 16.1807 21.1607 15.8767 21.4327 15.6567C21.7047 15.4327 22.0307 15.3207 22.4107 15.3207C22.5427 15.3207 22.6667 15.3367 22.7827 15.3687C22.8987 15.3967 23.0027 15.4407 23.0947 15.5007L23.0047 16.4727C22.9887 16.5407 22.9627 16.5887 22.9267 16.6167C22.8947 16.6407 22.8507 16.6527 22.7947 16.6527C22.7347 16.6527 22.6487 16.6427 22.5367 16.6227C22.4247 16.5987 22.3067 16.5867 22.1827 16.5867C22.0027 16.5867 21.8427 16.6127 21.7027 16.6647C21.5667 16.7167 21.4427 16.7927 21.3307 16.8927C21.2227 16.9927 21.1267 17.1147 21.0427 17.2587C20.9587 17.4027 20.8807 17.5667 20.8087 17.7507V21.5547H19.5187V15.4347H20.2687C20.4047 15.4347 20.4987 15.4607 20.5507 15.5127C20.6027 15.5607 20.6387 15.6467 20.6587 15.7707L20.7367 16.5687ZM27.5114 17.8047C27.5114 17.5887 27.4794 17.3887 27.4154 17.2047C27.3554 17.0167 27.2654 16.8547 27.1454 16.7187C27.0254 16.5787 26.8754 16.4707 26.6954 16.3947C26.5194 16.3147 26.3154 16.2747 26.0834 16.2747C25.6154 16.2747 25.2474 16.4087 24.9794 16.6767C24.7114 16.9447 24.5414 17.3207 24.4694 17.8047H27.5114ZM24.4334 18.5967C24.4494 18.9447 24.5034 19.2467 24.5954 19.5027C24.6874 19.7547 24.8094 19.9647 24.9614 20.1327C25.1174 20.3007 25.3014 20.4267 25.5134 20.5107C25.7294 20.5907 25.9694 20.6307 26.2334 20.6307C26.4854 20.6307 26.7034 20.6027 26.8874 20.5467C27.0714 20.4867 27.2314 20.4227 27.3674 20.3547C27.5034 20.2827 27.6194 20.2187 27.7154 20.1627C27.8114 20.1027 27.8994 20.0727 27.9794 20.0727C28.0834 20.0727 28.1634 20.1127 28.2194 20.1927L28.5854 20.6667C28.4334 20.8467 28.2614 20.9987 28.0694 21.1227C27.8774 21.2467 27.6734 21.3487 27.4574 21.4287C27.2414 21.5047 27.0194 21.5587 26.7914 21.5907C26.5634 21.6267 26.3414 21.6447 26.1254 21.6447C25.7014 21.6447 25.3074 21.5747 24.9434 21.4347C24.5834 21.2907 24.2694 21.0807 24.0014 20.8047C23.7374 20.5287 23.5294 20.1867 23.3774 19.7787C23.2294 19.3707 23.1554 18.9007 23.1554 18.3687C23.1554 17.9447 23.2214 17.5487 23.3534 17.1807C23.4894 16.8127 23.6814 16.4927 23.9294 16.2207C24.1814 15.9487 24.4854 15.7347 24.8414 15.5787C25.2014 15.4187 25.6074 15.3387 26.0594 15.3387C26.4354 15.3387 26.7834 15.4007 27.1034 15.5247C27.4234 15.6447 27.6994 15.8227 27.9314 16.0587C28.1634 16.2947 28.3434 16.5847 28.4714 16.9287C28.6034 17.2687 28.6694 17.6567 28.6694 18.0927C28.6694 18.2927 28.6474 18.4267 28.6034 18.4947C28.5594 18.5627 28.4794 18.5967 28.3634 18.5967H24.4334ZM30.8384 16.2447C30.9704 16.1087 31.1064 15.9867 31.2464 15.8787C31.3904 15.7667 31.5424 15.6707 31.7024 15.5907C31.8624 15.5107 32.0324 15.4487 32.2124 15.4047C32.3924 15.3607 32.5884 15.3387 32.8004 15.3387C33.1364 15.3387 33.4304 15.3947 33.6824 15.5067C33.9384 15.6187 34.1524 15.7767 34.3244 15.9807C34.5004 16.1847 34.6324 16.4307 34.7204 16.7187C34.8084 17.0027 34.8524 17.3167 34.8524 17.6607V21.5547H33.5684V17.6607C33.5684 17.2487 33.4724 16.9287 33.2804 16.7007C33.0924 16.4727 32.8044 16.3587 32.4164 16.3587C32.1284 16.3587 31.8604 16.4247 31.6124 16.5567C31.3684 16.6887 31.1384 16.8687 30.9224 17.0967V21.5547H29.6324V15.4347H30.4124C30.5884 15.4347 30.7004 15.5167 30.7484 15.6807L30.8384 16.2447ZM40.445 16.6347C40.405 16.6867 40.367 16.7267 40.331 16.7547C40.295 16.7827 40.243 16.7967 40.175 16.7967C40.107 16.7967 40.035 16.7727 39.959 16.7247C39.887 16.6767 39.799 16.6247 39.695 16.5687C39.595 16.5087 39.473 16.4547 39.329 16.4067C39.185 16.3587 39.005 16.3347 38.789 16.3347C38.509 16.3347 38.263 16.3847 38.051 16.4847C37.843 16.5847 37.667 16.7287 37.523 16.9167C37.383 17.1007 37.277 17.3267 37.205 17.5947C37.137 17.8587 37.103 18.1567 37.103 18.4887C37.103 18.8327 37.141 19.1387 37.217 19.4067C37.293 19.6747 37.401 19.9007 37.541 20.0847C37.685 20.2687 37.857 20.4087 38.057 20.5047C38.261 20.6007 38.489 20.6487 38.741 20.6487C38.989 20.6487 39.191 20.6187 39.347 20.5587C39.503 20.4987 39.633 20.4327 39.737 20.3607C39.841 20.2887 39.929 20.2227 40.001 20.1627C40.077 20.1027 40.157 20.0727 40.241 20.0727C40.345 20.0727 40.425 20.1127 40.481 20.1927L40.847 20.6667C40.699 20.8467 40.535 20.9987 40.355 21.1227C40.175 21.2467 39.985 21.3487 39.785 21.4287C39.585 21.5047 39.377 21.5587 39.161 21.5907C38.945 21.6267 38.727 21.6447 38.507 21.6447C38.127 21.6447 37.771 21.5747 37.439 21.4347C37.111 21.2907 36.823 21.0847 36.575 20.8167C36.331 20.5447 36.137 20.2147 35.993 19.8267C35.853 19.4347 35.783 18.9887 35.783 18.4887C35.783 18.0367 35.847 17.6187 35.975 17.2347C36.103 16.8467 36.289 16.5127 36.533 16.2327C36.781 15.9527 37.087 15.7347 37.451 15.5787C37.815 15.4187 38.235 15.3387 38.711 15.3387C39.155 15.3387 39.545 15.4107 39.881 15.5547C40.221 15.6987 40.523 15.9027 40.787 16.1667L40.445 16.6347ZM42.9346 16.1607C43.1866 15.9127 43.4626 15.7147 43.7626 15.5667C44.0626 15.4147 44.4126 15.3387 44.8126 15.3387C45.1486 15.3387 45.4426 15.3947 45.6946 15.5067C45.9506 15.6187 46.1646 15.7767 46.3366 15.9807C46.5126 16.1847 46.6446 16.4307 46.7326 16.7187C46.8206 17.0027 46.8646 17.3167 46.8646 17.6607V21.5547H45.5806V17.6607C45.5806 17.2487 45.4846 16.9287 45.2926 16.7007C45.1046 16.4727 44.8166 16.3587 44.4286 16.3587C44.1406 16.3587 43.8726 16.4247 43.6246 16.5567C43.3806 16.6887 43.1506 16.8687 42.9346 17.0967V21.5547H41.6446V12.6747H42.9346V16.1607Z" fill="white"/>
<path d="M22.494 51.577C21.489 49.8797 20.7967 48.1153 20.417 46.284C20.0597 44.4303 20.0262 42.6102 20.3165 40.8235C20.6068 39.0145 21.2098 37.2948 22.1255 35.6645C23.0635 34.0118 24.303 32.5267 25.844 31.209L28.0885 32.5825C28.4905 32.8282 28.6692 33.1408 28.6245 33.5205C28.5798 33.9002 28.4458 34.2128 28.2225 34.4585C27.7088 35.0838 27.2398 35.8767 26.8155 36.837C26.3912 37.7973 26.1008 38.8582 25.9445 40.0195C25.8105 41.1808 25.8552 42.398 26.0785 43.671C26.3018 44.944 26.782 46.1947 27.519 47.423C27.8763 47.9813 27.9768 48.4838 27.8205 48.9305C27.6865 49.3548 27.3627 49.6563 26.849 49.835L22.494 51.577ZM52.6882 68.059C50.1199 68.1483 47.9536 68.3605 46.1892 68.6955C44.4249 69.0082 42.9956 69.4213 41.9012 69.935C40.8069 70.4263 40.0141 71.0182 39.5227 71.7105C39.0537 72.4028 38.8192 73.1622 38.8192 73.9885C38.8192 74.7925 38.9421 75.4848 39.1877 76.0655C39.4557 76.6238 39.8131 77.0928 40.2597 77.4725C40.7287 77.8298 41.2647 78.0978 41.8677 78.2765C42.4931 78.4328 43.1742 78.511 43.9112 78.511C45.7872 78.511 47.3952 78.1648 48.7352 77.4725C50.0976 76.7578 51.4152 75.7305 52.6882 74.3905V68.059ZM33.5932 53.587C37.4569 49.9913 42.0576 48.1935 47.3952 48.1935C49.3606 48.1935 51.1026 48.5173 52.6212 49.165C54.1622 49.7903 55.4464 50.6837 56.4737 51.845C57.5234 53.0063 58.3162 54.391 58.8522 55.999C59.4106 57.5847 59.6897 59.349 59.6897 61.292V83H56.4737C55.7814 83 55.2566 82.8995 54.8992 82.6985C54.5419 82.4752 54.2404 82.0397 53.9947 81.392L53.2912 78.6115C52.4202 79.3932 51.5604 80.0967 50.7117 80.722C49.8631 81.325 48.9809 81.8387 48.0652 82.263C47.1719 82.6873 46.2004 83 45.1507 83.201C44.1234 83.4243 42.9844 83.536 41.7337 83.536C40.3491 83.536 39.0537 83.3462 37.8477 82.9665C36.6641 82.5868 35.6367 82.0173 34.7657 81.258C33.8947 80.4763 33.2024 79.516 32.6887 78.377C32.1974 77.238 31.9517 75.898 31.9517 74.357C31.9517 73.0393 32.2979 71.7552 32.9902 70.5045C33.7049 69.2538 34.8662 68.1372 36.4742 67.1545C38.1046 66.1495 40.2374 65.3232 42.8727 64.6755C45.5304 64.0278 48.8022 63.6593 52.6882 63.57V61.292C52.6882 58.8353 52.1634 57.004 51.1137 55.798C50.0641 54.592 48.5231 53.989 46.4907 53.989C45.1061 53.989 43.9447 54.1677 43.0067 54.525C42.0687 54.86 41.2536 55.2285 40.5612 55.6305C39.8689 56.0325 39.2547 56.4122 38.7187 56.7695C38.1827 57.1045 37.6132 57.272 37.0102 57.272C36.5189 57.272 36.0946 57.1492 35.7372 56.9035C35.4022 56.6355 35.1231 56.3117 34.8997 55.932L33.5932 53.587ZM75.0895 52.8835C76.4965 51.4988 78.0375 50.3933 79.7125 49.567C81.3875 48.7183 83.3417 48.294 85.575 48.294C87.451 48.294 89.0925 48.6067 90.4995 49.232C91.9289 49.8573 93.1237 50.7395 94.084 51.8785C95.0667 53.0175 95.8037 54.391 96.295 55.999C96.7864 57.5847 97.032 59.3378 97.032 61.2585V83H89.863V61.2585C89.863 58.9582 89.327 57.1715 88.255 55.8985C87.2054 54.6255 85.5974 53.989 83.431 53.989C81.823 53.989 80.3267 54.3575 78.942 55.0945C77.5797 55.8315 76.2955 56.8365 75.0895 58.1095V83H67.887V33.42H75.0895V52.8835ZM109.147 31.544C110.152 33.2413 110.833 35.0168 111.19 36.8705C111.548 38.7018 111.581 40.522 111.291 42.331C111 44.1177 110.386 45.8373 109.448 47.49C108.533 49.1427 107.304 50.6167 105.763 51.912L103.519 50.5385C103.139 50.2928 102.96 49.9802 102.983 49.6005C103.027 49.1985 103.161 48.8858 103.385 48.6625C103.898 48.0372 104.367 47.2443 104.792 46.284C105.216 45.3237 105.495 44.274 105.629 43.135C105.786 41.9737 105.752 40.7565 105.529 39.4835C105.328 38.2105 104.848 36.9487 104.088 35.698C103.731 35.1173 103.63 34.6148 103.787 34.1905C103.943 33.7662 104.267 33.4647 104.758 33.286L109.147 31.544Z" fill="white"/>
<defs>
<linearGradient id="paint0_linear_385_678" x1="66" y1="0" x2="66" y2="114" gradientUnits="userSpaceOnUse">
<stop stop-color="#02A7CF"/>
<stop offset="1" stop-color="#016981"/>
</linearGradient>
</defs>
</svg>
