<svg width="131" height="114" viewBox="0 0 131 114" fill="none" xmlns="http://www.w3.org/2000/svg">
<rect x="2" y="2" width="127" height="110" rx="17" fill="url(#paint0_linear_278_794)" stroke="white" stroke-width="4"/>
<path d="M14.6196 14.0487V16.8147H17.9976V17.9487H14.6196V21.5547H13.2096V12.9147H18.5976V14.0487H14.6196ZM20.2406 16.5687C20.4326 16.1807 20.6646 15.8767 20.9366 15.6567C21.2086 15.4327 21.5346 15.3207 21.9146 15.3207C22.0466 15.3207 22.1706 15.3367 22.2866 15.3687C22.4026 15.3967 22.5066 15.4407 22.5986 15.5007L22.5086 16.4727C22.4926 16.5407 22.4666 16.5887 22.4306 16.6167C22.3986 16.6407 22.3546 16.6527 22.2986 16.6527C22.2386 16.6527 22.1526 16.6427 22.0406 16.6227C21.9286 16.5987 21.8106 16.5867 21.6866 16.5867C21.5066 16.5867 21.3466 16.6127 21.2066 16.6647C21.0706 16.7167 20.9466 16.7927 20.8346 16.8927C20.7266 16.9927 20.6306 17.1147 20.5466 17.2587C20.4626 17.4027 20.3846 17.5667 20.3126 17.7507V21.5547H19.0226V15.4347H19.7726C19.9086 15.4347 20.0026 15.4607 20.0546 15.5127C20.1066 15.5607 20.1426 15.6467 20.1626 15.7707L20.2406 16.5687ZM27.0153 17.8047C27.0153 17.5887 26.9833 17.3887 26.9193 17.2047C26.8593 17.0167 26.7693 16.8547 26.6493 16.7187C26.5293 16.5787 26.3793 16.4707 26.1993 16.3947C26.0233 16.3147 25.8193 16.2747 25.5873 16.2747C25.1193 16.2747 24.7513 16.4087 24.4833 16.6767C24.2153 16.9447 24.0453 17.3207 23.9733 17.8047H27.0153ZM23.9373 18.5967C23.9533 18.9447 24.0073 19.2467 24.0993 19.5027C24.1913 19.7547 24.3133 19.9647 24.4653 20.1327C24.6213 20.3007 24.8053 20.4267 25.0173 20.5107C25.2333 20.5907 25.4733 20.6307 25.7373 20.6307C25.9893 20.6307 26.2073 20.6027 26.3913 20.5467C26.5753 20.4867 26.7353 20.4227 26.8713 20.3547C27.0073 20.2827 27.1233 20.2187 27.2193 20.1627C27.3153 20.1027 27.4033 20.0727 27.4833 20.0727C27.5873 20.0727 27.6673 20.1127 27.7233 20.1927L28.0893 20.6667C27.9373 20.8467 27.7653 20.9987 27.5733 21.1227C27.3813 21.2467 27.1773 21.3487 26.9613 21.4287C26.7453 21.5047 26.5233 21.5587 26.2953 21.5907C26.0673 21.6267 25.8453 21.6447 25.6293 21.6447C25.2053 21.6447 24.8113 21.5747 24.4473 21.4347C24.0873 21.2907 23.7733 21.0807 23.5053 20.8047C23.2413 20.5287 23.0333 20.1867 22.8813 19.7787C22.7333 19.3707 22.6593 18.9007 22.6593 18.3687C22.6593 17.9447 22.7253 17.5487 22.8573 17.1807C22.9933 16.8127 23.1853 16.4927 23.4333 16.2207C23.6853 15.9487 23.9893 15.7347 24.3453 15.5787C24.7053 15.4187 25.1113 15.3387 25.5633 15.3387C25.9393 15.3387 26.2873 15.4007 26.6073 15.5247C26.9273 15.6447 27.2033 15.8227 27.4353 16.0587C27.6673 16.2947 27.8473 16.5847 27.9753 16.9287C28.1073 17.2687 28.1733 17.6567 28.1733 18.0927C28.1733 18.2927 28.1513 18.4267 28.1073 18.4947C28.0633 18.5627 27.9833 18.5967 27.8673 18.5967H23.9373ZM30.3423 16.2447C30.4743 16.1087 30.6103 15.9867 30.7503 15.8787C30.8943 15.7667 31.0463 15.6707 31.2063 15.5907C31.3663 15.5107 31.5363 15.4487 31.7163 15.4047C31.8963 15.3607 32.0923 15.3387 32.3043 15.3387C32.6403 15.3387 32.9343 15.3947 33.1863 15.5067C33.4423 15.6187 33.6563 15.7767 33.8283 15.9807C34.0043 16.1847 34.1363 16.4307 34.2243 16.7187C34.3123 17.0027 34.3563 17.3167 34.3563 17.6607V21.5547H33.0723V17.6607C33.0723 17.2487 32.9763 16.9287 32.7843 16.7007C32.5963 16.4727 32.3083 16.3587 31.9203 16.3587C31.6323 16.3587 31.3643 16.4247 31.1163 16.5567C30.8723 16.6887 30.6423 16.8687 30.4263 17.0967V21.5547H29.1363V15.4347H29.9163C30.0923 15.4347 30.2043 15.5167 30.2523 15.6807L30.3423 16.2447ZM39.9489 16.6347C39.9089 16.6867 39.8709 16.7267 39.8349 16.7547C39.7989 16.7827 39.7469 16.7967 39.6789 16.7967C39.6109 16.7967 39.5389 16.7727 39.4629 16.7247C39.3909 16.6767 39.3029 16.6247 39.1989 16.5687C39.0989 16.5087 38.9769 16.4547 38.8329 16.4067C38.6889 16.3587 38.5089 16.3347 38.2929 16.3347C38.0129 16.3347 37.7669 16.3847 37.5549 16.4847C37.3469 16.5847 37.1709 16.7287 37.0269 16.9167C36.8869 17.1007 36.7809 17.3267 36.7089 17.5947C36.6409 17.8587 36.6069 18.1567 36.6069 18.4887C36.6069 18.8327 36.6449 19.1387 36.7209 19.4067C36.7969 19.6747 36.9049 19.9007 37.0449 20.0847C37.1889 20.2687 37.3609 20.4087 37.5609 20.5047C37.7649 20.6007 37.9929 20.6487 38.2449 20.6487C38.4929 20.6487 38.6949 20.6187 38.8509 20.5587C39.0069 20.4987 39.1369 20.4327 39.2409 20.3607C39.3449 20.2887 39.4329 20.2227 39.5049 20.1627C39.5809 20.1027 39.6609 20.0727 39.7449 20.0727C39.8489 20.0727 39.9289 20.1127 39.9849 20.1927L40.3509 20.6667C40.2029 20.8467 40.0389 20.9987 39.8589 21.1227C39.6789 21.2467 39.4889 21.3487 39.2889 21.4287C39.0889 21.5047 38.8809 21.5587 38.6649 21.5907C38.4489 21.6267 38.2309 21.6447 38.0109 21.6447C37.6309 21.6447 37.2749 21.5747 36.9429 21.4347C36.6149 21.2907 36.3269 21.0847 36.0789 20.8167C35.8349 20.5447 35.6409 20.2147 35.4969 19.8267C35.3569 19.4347 35.2869 18.9887 35.2869 18.4887C35.2869 18.0367 35.3509 17.6187 35.4789 17.2347C35.6069 16.8467 35.7929 16.5127 36.0369 16.2327C36.2849 15.9527 36.5909 15.7347 36.9549 15.5787C37.3189 15.4187 37.7389 15.3387 38.2149 15.3387C38.6589 15.3387 39.0489 15.4107 39.3849 15.5547C39.7249 15.6987 40.0269 15.9027 40.2909 16.1667L39.9489 16.6347ZM42.4385 16.1607C42.6905 15.9127 42.9665 15.7147 43.2665 15.5667C43.5665 15.4147 43.9165 15.3387 44.3165 15.3387C44.6525 15.3387 44.9465 15.3947 45.1985 15.5067C45.4545 15.6187 45.6685 15.7767 45.8405 15.9807C46.0165 16.1847 46.1485 16.4307 46.2365 16.7187C46.3245 17.0027 46.3685 17.3167 46.3685 17.6607V21.5547H45.0845V17.6607C45.0845 17.2487 44.9885 16.9287 44.7965 16.7007C44.6085 16.4727 44.3205 16.3587 43.9325 16.3587C43.6445 16.3587 43.3765 16.4247 43.1285 16.5567C42.8845 16.6887 42.6545 16.8687 42.4385 17.0967V21.5547H41.1485V12.6747H42.4385V16.1607Z" fill="white"/>
<path d="M21.994 51.577C20.989 49.8797 20.2967 48.1153 19.917 46.284C19.5597 44.4303 19.5262 42.6102 19.8165 40.8235C20.1068 39.0145 20.7098 37.2948 21.6255 35.6645C22.5635 34.0118 23.803 32.5267 25.344 31.209L27.5885 32.5825C27.9905 32.8282 28.1692 33.1408 28.1245 33.5205C28.0798 33.9002 27.9458 34.2128 27.7225 34.4585C27.2088 35.0838 26.7398 35.8767 26.3155 36.837C25.8912 37.7973 25.6008 38.8582 25.4445 40.0195C25.3105 41.1808 25.3552 42.398 25.5785 43.671C25.8018 44.944 26.282 46.1947 27.019 47.423C27.3763 47.9813 27.4768 48.4838 27.3205 48.9305C27.1865 49.3548 26.8627 49.6563 26.349 49.835L21.994 51.577ZM52.1882 68.059C49.6199 68.1483 47.4536 68.3605 45.6892 68.6955C43.9249 69.0082 42.4956 69.4213 41.4012 69.935C40.3069 70.4263 39.5141 71.0182 39.0227 71.7105C38.5537 72.4028 38.3192 73.1622 38.3192 73.9885C38.3192 74.7925 38.4421 75.4848 38.6877 76.0655C38.9557 76.6238 39.3131 77.0928 39.7597 77.4725C40.2287 77.8298 40.7647 78.0978 41.3677 78.2765C41.9931 78.4328 42.6742 78.511 43.4112 78.511C45.2872 78.511 46.8952 78.1648 48.2352 77.4725C49.5976 76.7578 50.9152 75.7305 52.1882 74.3905V68.059ZM33.0932 53.587C36.9569 49.9913 41.5576 48.1935 46.8952 48.1935C48.8606 48.1935 50.6026 48.5173 52.1212 49.165C53.6622 49.7903 54.9464 50.6837 55.9737 51.845C57.0234 53.0063 57.8162 54.391 58.3522 55.999C58.9106 57.5847 59.1897 59.349 59.1897 61.292V83H55.9737C55.2814 83 54.7566 82.8995 54.3992 82.6985C54.0419 82.4752 53.7404 82.0397 53.4947 81.392L52.7912 78.6115C51.9202 79.3932 51.0604 80.0967 50.2117 80.722C49.3631 81.325 48.4809 81.8387 47.5652 82.263C46.6719 82.6873 45.7004 83 44.6507 83.201C43.6234 83.4243 42.4844 83.536 41.2337 83.536C39.8491 83.536 38.5537 83.3462 37.3477 82.9665C36.1641 82.5868 35.1367 82.0173 34.2657 81.258C33.3947 80.4763 32.7024 79.516 32.1887 78.377C31.6974 77.238 31.4517 75.898 31.4517 74.357C31.4517 73.0393 31.7979 71.7552 32.4902 70.5045C33.2049 69.2538 34.3662 68.1372 35.9742 67.1545C37.6046 66.1495 39.7374 65.3232 42.3727 64.6755C45.0304 64.0278 48.3022 63.6593 52.1882 63.57V61.292C52.1882 58.8353 51.6634 57.004 50.6137 55.798C49.5641 54.592 48.0231 53.989 45.9907 53.989C44.6061 53.989 43.4447 54.1677 42.5067 54.525C41.5687 54.86 40.7536 55.2285 40.0612 55.6305C39.3689 56.0325 38.7547 56.4122 38.2187 56.7695C37.6827 57.1045 37.1132 57.272 36.5102 57.272C36.0189 57.272 35.5946 57.1492 35.2372 56.9035C34.9022 56.6355 34.6231 56.3117 34.3997 55.932L33.0932 53.587ZM74.5895 52.8835C75.9965 51.4988 77.5375 50.3933 79.2125 49.567C80.8875 48.7183 82.8417 48.294 85.075 48.294C86.951 48.294 88.5925 48.6067 89.9995 49.232C91.4289 49.8573 92.6237 50.7395 93.584 51.8785C94.5667 53.0175 95.3037 54.391 95.795 55.999C96.2864 57.5847 96.532 59.3378 96.532 61.2585V83H89.363V61.2585C89.363 58.9582 88.827 57.1715 87.755 55.8985C86.7054 54.6255 85.0974 53.989 82.931 53.989C81.323 53.989 79.8267 54.3575 78.442 55.0945C77.0797 55.8315 75.7955 56.8365 74.5895 58.1095V83H67.387V33.42H74.5895V52.8835ZM108.647 31.544C109.652 33.2413 110.333 35.0168 110.69 36.8705C111.048 38.7018 111.081 40.522 110.791 42.331C110.5 44.1177 109.886 45.8373 108.948 47.49C108.033 49.1427 106.804 50.6167 105.263 51.912L103.019 50.5385C102.639 50.2928 102.46 49.9802 102.483 49.6005C102.527 49.1985 102.661 48.8858 102.885 48.6625C103.398 48.0372 103.867 47.2443 104.292 46.284C104.716 45.3237 104.995 44.274 105.129 43.135C105.286 41.9737 105.252 40.7565 105.029 39.4835C104.828 38.2105 104.348 36.9487 103.588 35.698C103.231 35.1173 103.13 34.6148 103.287 34.1905C103.443 33.7662 103.767 33.4647 104.258 33.286L108.647 31.544Z" fill="white"/>
<defs>
<linearGradient id="paint0_linear_278_794" x1="65.5" y1="0" x2="65.5" y2="114" gradientUnits="userSpaceOnUse">
<stop stop-color="#02A7CF"/>
<stop offset="1" stop-color="#016981"/>
</linearGradient>
</defs>
</svg>
