<svg width="131" height="114" viewBox="0 0 131 114" fill="none" xmlns="http://www.w3.org/2000/svg">
<rect x="2" y="2" width="127" height="110" rx="17" fill="url(#paint0_linear_278_792)" stroke="white" stroke-width="4"/>
<path d="M14.7276 14.3907C14.6836 14.4627 14.6376 14.5167 14.5896 14.5527C14.5416 14.5847 14.4816 14.6007 14.4096 14.6007C14.3336 14.6007 14.2476 14.5687 14.1516 14.5047C14.0596 14.4407 13.9436 14.3707 13.8036 14.2947C13.6676 14.2147 13.5056 14.1427 13.3176 14.0787C13.1296 14.0107 12.9056 13.9767 12.6456 13.9767C12.4056 13.9767 12.1936 14.0067 12.0096 14.0667C11.8296 14.1267 11.6776 14.2107 11.5536 14.3187C11.4296 14.4267 11.3356 14.5547 11.2716 14.7027C11.2116 14.8467 11.1816 15.0047 11.1816 15.1767C11.1816 15.3967 11.2396 15.5807 11.3556 15.7287C11.4716 15.8727 11.6236 15.9967 11.8116 16.1007C12.0036 16.2047 12.2216 16.2967 12.4656 16.3767C12.7096 16.4527 12.9576 16.5347 13.2096 16.6227C13.4656 16.7107 13.7156 16.8107 13.9596 16.9227C14.2036 17.0347 14.4196 17.1767 14.6076 17.3487C14.7996 17.5207 14.9536 17.7307 15.0696 17.9787C15.1856 18.2267 15.2436 18.5287 15.2436 18.8847C15.2436 19.2687 15.1776 19.6287 15.0456 19.9647C14.9136 20.3007 14.7216 20.5947 14.4696 20.8467C14.2216 21.0947 13.9136 21.2907 13.5456 21.4347C13.1816 21.5787 12.7656 21.6507 12.2976 21.6507C12.0216 21.6507 11.7516 21.6227 11.4876 21.5667C11.2276 21.5147 10.9776 21.4407 10.7376 21.3447C10.5016 21.2447 10.2796 21.1247 10.0716 20.9847C9.86359 20.8447 9.67759 20.6887 9.51359 20.5167L9.92159 19.8447C9.95759 19.7887 10.0036 19.7447 10.0596 19.7127C10.1156 19.6807 10.1776 19.6647 10.2456 19.6647C10.3376 19.6647 10.4396 19.7087 10.5516 19.7967C10.6636 19.8807 10.7976 19.9747 10.9536 20.0787C11.1136 20.1787 11.3056 20.2727 11.5296 20.3607C11.7536 20.4447 12.0216 20.4867 12.3336 20.4867C12.8416 20.4867 13.2336 20.3627 13.5096 20.1147C13.7896 19.8667 13.9296 19.5247 13.9296 19.0887C13.9296 18.8447 13.8716 18.6467 13.7556 18.4947C13.6396 18.3387 13.4856 18.2087 13.2936 18.1047C13.1056 18.0007 12.8896 17.9127 12.6456 17.8407C12.4016 17.7687 12.1536 17.6927 11.9016 17.6127C11.6496 17.5287 11.4016 17.4327 11.1576 17.3247C10.9136 17.2127 10.6956 17.0687 10.5036 16.8927C10.3156 16.7127 10.1636 16.4927 10.0476 16.2327C9.93159 15.9687 9.87359 15.6407 9.87359 15.2487C9.87359 14.9367 9.93359 14.6347 10.0536 14.3427C10.1776 14.0507 10.3556 13.7927 10.5876 13.5687C10.8236 13.3407 11.1136 13.1587 11.4576 13.0227C11.8016 12.8867 12.1936 12.8187 12.6336 12.8187C13.1296 12.8187 13.5836 12.8967 13.9956 13.0527C14.4116 13.2087 14.7696 13.4307 15.0696 13.7187L14.7276 14.3907ZM17.4532 20.0187C17.6332 20.2507 17.8292 20.4147 18.0412 20.5107C18.2572 20.6027 18.4952 20.6487 18.7552 20.6487C19.2592 20.6487 19.6512 20.4647 19.9312 20.0967C20.2152 19.7287 20.3572 19.1807 20.3572 18.4527C20.3572 18.0767 20.3252 17.7567 20.2612 17.4927C20.1972 17.2247 20.1052 17.0067 19.9852 16.8387C19.8652 16.6707 19.7192 16.5487 19.5472 16.4727C19.3752 16.3967 19.1812 16.3587 18.9652 16.3587C18.6372 16.3587 18.3532 16.4307 18.1132 16.5747C17.8772 16.7147 17.6572 16.9167 17.4532 17.1807V20.0187ZM17.3872 16.3227C17.6432 16.0227 17.9332 15.7807 18.2572 15.5967C18.5852 15.4127 18.9652 15.3207 19.3972 15.3207C19.7412 15.3207 20.0532 15.3907 20.3332 15.5307C20.6132 15.6667 20.8532 15.8667 21.0532 16.1307C21.2532 16.3947 21.4072 16.7227 21.5152 17.1147C21.6272 17.5027 21.6832 17.9487 21.6832 18.4527C21.6832 18.9047 21.6212 19.3267 21.4972 19.7187C21.3772 20.1067 21.2032 20.4447 20.9752 20.7327C20.7472 21.0167 20.4712 21.2407 20.1472 21.4047C19.8232 21.5647 19.4572 21.6447 19.0492 21.6447C18.6892 21.6447 18.3832 21.5867 18.1312 21.4707C17.8832 21.3547 17.6572 21.1947 17.4532 20.9907V23.5887H16.1632V15.4347H16.9432C17.1192 15.4347 17.2312 15.5167 17.2792 15.6807L17.3872 16.3227ZM25.9666 18.8787C25.5066 18.8947 25.1186 18.9327 24.8026 18.9927C24.4866 19.0487 24.2306 19.1227 24.0346 19.2147C23.8386 19.3027 23.6966 19.4087 23.6086 19.5327C23.5246 19.6567 23.4826 19.7927 23.4826 19.9407C23.4826 20.0847 23.5046 20.2087 23.5486 20.3127C23.5966 20.4127 23.6606 20.4967 23.7406 20.5647C23.8246 20.6287 23.9206 20.6767 24.0286 20.7087C24.1406 20.7367 24.2626 20.7507 24.3946 20.7507C24.7306 20.7507 25.0186 20.6887 25.2586 20.5647C25.5026 20.4367 25.7386 20.2527 25.9666 20.0127V18.8787ZM22.5466 16.2867C23.2386 15.6427 24.0626 15.3207 25.0186 15.3207C25.3706 15.3207 25.6826 15.3787 25.9546 15.4947C26.2306 15.6067 26.4606 15.7667 26.6446 15.9747C26.8326 16.1827 26.9746 16.4307 27.0706 16.7187C27.1706 17.0027 27.2206 17.3187 27.2206 17.6667V21.5547H26.6446C26.5206 21.5547 26.4266 21.5367 26.3626 21.5007C26.2986 21.4607 26.2446 21.3827 26.2006 21.2667L26.0746 20.7687C25.9186 20.9087 25.7646 21.0347 25.6126 21.1467C25.4606 21.2547 25.3026 21.3467 25.1386 21.4227C24.9786 21.4987 24.8046 21.5547 24.6166 21.5907C24.4326 21.6307 24.2286 21.6507 24.0046 21.6507C23.7566 21.6507 23.5246 21.6167 23.3086 21.5487C23.0966 21.4807 22.9126 21.3787 22.7566 21.2427C22.6006 21.1027 22.4766 20.9307 22.3846 20.7267C22.2966 20.5227 22.2526 20.2827 22.2526 20.0067C22.2526 19.7707 22.3146 19.5407 22.4386 19.3167C22.5666 19.0927 22.7746 18.8927 23.0626 18.7167C23.3546 18.5367 23.7366 18.3887 24.2086 18.2727C24.6846 18.1567 25.2706 18.0907 25.9666 18.0747V17.6667C25.9666 17.2267 25.8726 16.8987 25.6846 16.6827C25.4966 16.4667 25.2206 16.3587 24.8566 16.3587C24.6086 16.3587 24.4006 16.3907 24.2326 16.4547C24.0646 16.5147 23.9186 16.5807 23.7946 16.6527C23.6706 16.7247 23.5606 16.7927 23.4646 16.8567C23.3686 16.9167 23.2666 16.9467 23.1586 16.9467C23.0706 16.9467 22.9946 16.9247 22.9306 16.8807C22.8706 16.8327 22.8206 16.7747 22.7806 16.7067L22.5466 16.2867ZM29.6978 16.2447C29.8298 16.1087 29.9658 15.9867 30.1058 15.8787C30.2498 15.7667 30.4018 15.6707 30.5618 15.5907C30.7218 15.5107 30.8918 15.4487 31.0718 15.4047C31.2518 15.3607 31.4478 15.3387 31.6598 15.3387C31.9958 15.3387 32.2898 15.3947 32.5418 15.5067C32.7978 15.6187 33.0118 15.7767 33.1838 15.9807C33.3598 16.1847 33.4918 16.4307 33.5798 16.7187C33.6678 17.0027 33.7118 17.3167 33.7118 17.6607V21.5547H32.4278V17.6607C32.4278 17.2487 32.3318 16.9287 32.1398 16.7007C31.9518 16.4727 31.6638 16.3587 31.2758 16.3587C30.9878 16.3587 30.7198 16.4247 30.4718 16.5567C30.2278 16.6887 29.9978 16.8687 29.7818 17.0967V21.5547H28.4918V15.4347H29.2718C29.4478 15.4347 29.5598 15.5167 29.6078 15.6807L29.6978 16.2447ZM36.3223 15.4347V21.5547H35.0323V15.4347H36.3223ZM36.5383 13.5867C36.5383 13.7027 36.5143 13.8127 36.4663 13.9167C36.4223 14.0207 36.3603 14.1127 36.2803 14.1927C36.2003 14.2687 36.1063 14.3307 35.9983 14.3787C35.8943 14.4227 35.7823 14.4447 35.6623 14.4447C35.5463 14.4447 35.4363 14.4227 35.3323 14.3787C35.2323 14.3307 35.1443 14.2687 35.0683 14.1927C34.9923 14.1127 34.9303 14.0207 34.8823 13.9167C34.8383 13.8127 34.8163 13.7027 34.8163 13.5867C34.8163 13.4667 34.8383 13.3547 34.8823 13.2507C34.9303 13.1467 34.9923 13.0567 35.0683 12.9807C35.1443 12.9007 35.2323 12.8387 35.3323 12.7947C35.4363 12.7467 35.5463 12.7227 35.6623 12.7227C35.7823 12.7227 35.8943 12.7467 35.9983 12.7947C36.1063 12.8387 36.2003 12.9007 36.2803 12.9807C36.3603 13.0567 36.4223 13.1467 36.4663 13.2507C36.5143 13.3547 36.5383 13.4667 36.5383 13.5867ZM41.3572 16.5447C41.3252 16.6007 41.2892 16.6407 41.2492 16.6647C41.2092 16.6887 41.1592 16.7007 41.0992 16.7007C41.0312 16.7007 40.9572 16.6807 40.8772 16.6407C40.7972 16.5967 40.7032 16.5487 40.5952 16.4967C40.4872 16.4447 40.3592 16.3987 40.2112 16.3587C40.0672 16.3147 39.8972 16.2927 39.7012 16.2927C39.5412 16.2927 39.3952 16.3127 39.2632 16.3527C39.1352 16.3887 39.0252 16.4427 38.9332 16.5147C38.8452 16.5827 38.7772 16.6647 38.7292 16.7607C38.6812 16.8527 38.6572 16.9527 38.6572 17.0607C38.6572 17.2047 38.7012 17.3247 38.7892 17.4207C38.8772 17.5167 38.9932 17.6007 39.1372 17.6727C39.2812 17.7407 39.4452 17.8027 39.6292 17.8587C39.8132 17.9147 40.0012 17.9747 40.1932 18.0387C40.3852 18.1027 40.5732 18.1767 40.7572 18.2607C40.9412 18.3447 41.1052 18.4487 41.2492 18.5727C41.3932 18.6927 41.5092 18.8407 41.5972 19.0167C41.6852 19.1887 41.7292 19.3987 41.7292 19.6467C41.7292 19.9347 41.6772 20.2007 41.5732 20.4447C41.4692 20.6887 41.3172 20.9007 41.1172 21.0807C40.9172 21.2607 40.6672 21.4007 40.3672 21.5007C40.0712 21.6007 39.7312 21.6507 39.3472 21.6507C39.1352 21.6507 38.9292 21.6307 38.7292 21.5907C38.5332 21.5547 38.3452 21.5047 38.1652 21.4407C37.9892 21.3727 37.8232 21.2927 37.6672 21.2007C37.5152 21.1087 37.3792 21.0087 37.2592 20.9007L37.5592 20.4087C37.5952 20.3487 37.6392 20.3027 37.6912 20.2707C37.7472 20.2347 37.8152 20.2167 37.8952 20.2167C37.9792 20.2167 38.0612 20.2447 38.1412 20.3007C38.2252 20.3527 38.3212 20.4107 38.4292 20.4747C38.5412 20.5387 38.6752 20.5987 38.8312 20.6547C38.9872 20.7067 39.1812 20.7327 39.4132 20.7327C39.6052 20.7327 39.7712 20.7107 39.9112 20.6667C40.0512 20.6187 40.1672 20.5547 40.2592 20.4747C40.3512 20.3947 40.4192 20.3047 40.4632 20.2047C40.5072 20.1007 40.5292 19.9907 40.5292 19.8747C40.5292 19.7187 40.4852 19.5907 40.3972 19.4907C40.3092 19.3907 40.1912 19.3047 40.0432 19.2327C39.8992 19.1607 39.7332 19.0967 39.5452 19.0407C39.3612 18.9847 39.1732 18.9247 38.9812 18.8607C38.7892 18.7967 38.5992 18.7227 38.4112 18.6387C38.2272 18.5547 38.0612 18.4487 37.9132 18.3207C37.7692 18.1887 37.6532 18.0307 37.5652 17.8467C37.4772 17.6587 37.4332 17.4307 37.4332 17.1627C37.4332 16.9187 37.4812 16.6867 37.5772 16.4667C37.6772 16.2467 37.8212 16.0527 38.0092 15.8847C38.2012 15.7167 38.4352 15.5847 38.7112 15.4887C38.9912 15.3887 39.3132 15.3387 39.6772 15.3387C40.0892 15.3387 40.4632 15.4047 40.7992 15.5367C41.1352 15.6687 41.4172 15.8487 41.6452 16.0767L41.3572 16.5447ZM43.9915 16.1607C44.2435 15.9127 44.5195 15.7147 44.8195 15.5667C45.1195 15.4147 45.4695 15.3387 45.8695 15.3387C46.2055 15.3387 46.4995 15.3947 46.7515 15.5067C47.0075 15.6187 47.2215 15.7767 47.3935 15.9807C47.5695 16.1847 47.7015 16.4307 47.7895 16.7187C47.8775 17.0027 47.9215 17.3167 47.9215 17.6607V21.5547H46.6375V17.6607C46.6375 17.2487 46.5415 16.9287 46.3495 16.7007C46.1615 16.4727 45.8735 16.3587 45.4855 16.3587C45.1975 16.3587 44.9295 16.4247 44.6815 16.5567C44.4375 16.6887 44.2075 16.8687 43.9915 17.0967V21.5547H42.7015V12.6747H43.9915V16.1607Z" fill="white"/>
<path d="M84.8166 32.7727V81.5H79.1064L52.5538 43.2415H52.078V81.5H46.1774V32.7727H51.8877L78.5354 71.1264H79.0112V32.7727H84.8166ZM58.1689 28.3949L53.7911 28.2045C53.7911 25.7777 54.481 23.795 55.861 22.2564C57.2569 20.7019 58.9779 19.9247 61.024 19.9247C61.9281 19.9247 62.7292 20.0833 63.4271 20.4006C64.125 20.7019 64.7912 21.0509 65.4256 21.4474C66.0601 21.844 66.7104 22.2009 67.3766 22.5181C68.0587 22.8195 68.828 22.9702 69.6845 22.9702C70.5886 22.9702 71.35 22.6212 71.9686 21.9233C72.6031 21.2095 72.9203 20.353 72.9203 19.3537L77.203 19.7344C77.203 22.2088 76.5051 24.1757 75.1092 25.6349C73.7293 27.0942 72.0162 27.8239 69.97 27.8239C68.8756 27.8239 67.9715 27.6732 67.2577 27.3718C66.5439 27.0546 65.9094 26.6977 65.3543 26.3011C64.7991 25.9046 64.2122 25.5556 63.5936 25.2543C62.975 24.937 62.2136 24.7784 61.3095 24.7784C60.4054 24.7784 59.652 25.1353 59.0492 25.8491C58.4623 26.547 58.1689 27.3956 58.1689 28.3949Z" fill="white"/>
<defs>
<linearGradient id="paint0_linear_278_792" x1="65.5" y1="0" x2="65.5" y2="114" gradientUnits="userSpaceOnUse">
<stop stop-color="#8D81E3"/>
<stop offset="1" stop-color="#6C60CA"/>
</linearGradient>
</defs>
</svg>
